<svg width="18" height="18" viewBox="0 0 18 18" fill="none" xmlns="http://www.w3.org/2000/svg">
<path fill-rule="evenodd" clip-rule="evenodd" d="M7.56036 7.30974C9.01464 7.30974 10.1936 6.12111 10.1936 4.65487C10.1936 3.18863 9.01464 2 7.56036 2C6.10608 2 4.92715 3.18863 4.92715 4.65487C4.92715 6.12111 6.10608 7.30974 7.56036 7.30974ZM8.33726 15.062C8.19222 14.9173 8.09758 14.7292 8.06752 14.5258C8.03745 14.3224 8.07358 14.1146 8.17049 13.9336L8.40309 13.4912L7.92472 13.3451C7.72965 13.2836 7.55982 13.1595 7.44101 12.9918C7.32221 12.8241 7.26091 12.622 7.26642 12.4159V11.5089C7.26605 11.3038 7.33113 11.104 7.45205 10.939C7.57296 10.7741 7.7433 10.6528 7.93788 10.5929L8.41625 10.4469L8.18804 10.0044C8.09397 9.82593 8.05818 9.62205 8.08576 9.42183C8.11334 9.22162 8.20289 9.03529 8.34164 8.88939C8.00401 8.84476 7.66398 8.82112 7.32347 8.81859C6.31773 8.79472 5.31915 8.9949 4.39896 9.40486C3.47877 9.81482 2.65964 10.4245 2 11.1903V14.6195C2 14.7368 2.04624 14.8494 2.12854 14.9324C2.21085 15.0153 2.32247 15.062 2.43887 15.062H8.33726ZM15.0344 11.0974L15.9122 11.3629C15.9398 11.3789 15.9625 11.4022 15.978 11.4302C15.9934 11.4583 16.001 11.4901 16 11.5222V12.4381C15.9981 12.473 15.9857 12.5064 15.9646 12.5341C15.9434 12.5617 15.9144 12.5823 15.8815 12.5929L15.0037 12.8629C14.9424 13.0749 14.8585 13.2796 14.7536 13.4735L15.1924 14.3053C15.2088 14.3365 15.2151 14.372 15.2104 14.407C15.2057 14.4419 15.1902 14.4745 15.1661 14.5L14.5254 15.1416C14.5 15.1659 14.4677 15.1815 14.433 15.1863C14.3984 15.1911 14.3631 15.1847 14.3323 15.1682L13.5028 14.7257C13.3109 14.8323 13.1077 14.9169 12.8972 14.9779L12.6338 15.885C12.623 15.9177 12.6025 15.9463 12.575 15.9669C12.5475 15.9875 12.5144 15.9991 12.4802 16H11.5805C11.5456 16 11.5115 15.9888 11.4831 15.9682C11.4548 15.9476 11.4336 15.9184 11.4226 15.885L11.1592 14.9779C10.9461 14.9161 10.7401 14.8316 10.5448 14.7257L9.72414 15.1682C9.69325 15.1847 9.65799 15.1911 9.62334 15.1863C9.58869 15.1815 9.5564 15.1659 9.53103 15.1416L8.87712 14.5C8.85172 14.4753 8.83498 14.443 8.82944 14.4079C8.82389 14.3727 8.82985 14.3367 8.8464 14.3053L9.28527 13.4646C9.176 13.2666 9.08774 13.0574 9.02195 12.8407L8.14421 12.5708C8.11101 12.5611 8.08187 12.5408 8.06126 12.5128C8.04065 12.4848 8.02971 12.4508 8.03011 12.416V11.5089C8.02971 11.474 8.04065 11.44 8.06126 11.412C8.08187 11.3841 8.11101 11.3637 8.14421 11.354L9.02195 11.0841C9.09399 10.8634 9.18964 10.6512 9.30721 10.4514L8.86834 9.64604C8.85179 9.61463 8.84584 9.57864 8.85138 9.54351C8.85692 9.50839 8.87366 9.47603 8.89906 9.45135L9.5442 8.81418C9.56956 8.7899 9.60185 8.77428 9.6365 8.76951C9.67116 8.76475 9.70642 8.77109 9.7373 8.78764L10.5317 9.23011C10.7328 9.1158 10.9463 9.02524 11.168 8.9602L11.4313 8.07525C11.4421 8.04249 11.4627 8.01389 11.4901 7.9933C11.5176 7.97272 11.5507 7.96116 11.5849 7.9602H12.4978C12.5322 7.95993 12.5659 7.97042 12.5942 7.99023C12.6225 8.01004 12.644 8.03819 12.6558 8.07082L12.9235 8.95578C13.141 9.02287 13.3512 9.11181 13.5511 9.22126L14.363 8.77879C14.3938 8.76382 14.4284 8.75876 14.4622 8.7643C14.4959 8.76984 14.5272 8.78571 14.5517 8.80976L15.188 9.45578C15.2137 9.47932 15.2308 9.51095 15.2363 9.5455C15.2419 9.58006 15.2357 9.6155 15.2188 9.64604L14.7799 10.4691C14.8882 10.668 14.9736 10.8788 15.0344 11.0974ZM11.2214 13.2044C11.463 13.3663 11.7469 13.4522 12.037 13.4514C12.425 13.4502 12.7967 13.294 13.0706 13.0169C13.3446 12.7399 13.4984 12.3647 13.4984 11.9735C13.4984 11.681 13.4123 11.3951 13.2511 11.152C13.0898 10.9088 12.8606 10.7194 12.5925 10.6077C12.3244 10.496 12.0295 10.4669 11.745 10.5243C11.4605 10.5817 11.1994 10.7229 10.9945 10.93C10.7897 11.1372 10.6505 11.4009 10.5944 11.6879C10.5383 11.9749 10.568 12.2721 10.6796 12.5421C10.7912 12.8121 10.9798 13.0426 11.2214 13.2044Z" fill="#4D5E6E"/>
</svg>
