<svg width="18" height="18" viewBox="0 0 18 18" fill="none" xmlns="http://www.w3.org/2000/svg">
<path fill-rule="evenodd" clip-rule="evenodd" d="M5.375 9.875H6.625C6.83125 9.875 7 9.72734 7 9.54688V8.45312C7 8.27266 6.83125 8.125 6.625 8.125H5.375C5.16875 8.125 5 8.27266 5 8.45312V9.54688C5 9.72734 5.16875 9.875 5.375 9.875ZM10 8.45312V9.54688C10 9.72734 9.83125 9.875 9.625 9.875H8.375C8.16875 9.875 8 9.72734 8 9.54688V8.45312C8 8.27266 8.16875 8.125 8.375 8.125H9.625C9.83125 8.125 10 8.27266 10 8.45312ZM13 8.45312V9.54688C13 9.72734 12.8313 9.875 12.625 9.875H11.375C11.1688 9.875 11 9.72734 11 9.54688V8.45312C11 8.27266 11.1688 8.125 11.375 8.125H12.625C12.8313 8.125 13 8.27266 13 8.45312ZM8.00013 12.1805V11.0695C8.00004 11.0723 8 11.0752 8 11.0781V12.1719C8 12.1748 8.00004 12.1777 8.00013 12.1805ZM7 11.0781V12.1719C7 12.3523 6.83125 12.5 6.625 12.5H5.375C5.16875 12.5 5 12.3523 5 12.1719V11.0781C5 10.8977 5.16875 10.75 5.375 10.75H6.625C6.83125 10.75 7 10.8977 7 11.0781ZM16 14.6875V5.0625C16 4.33789 15.3281 3.75 14.5 3.75H12.8889V2.32812C12.8889 2.14766 12.7063 2 12.5 2H11.7222C11.516 2 11.3333 2.14766 11.3333 2.32812V3.75H6.66667V2.32812C6.66667 2.14766 6.48403 2 6.27778 2H5.5C5.29375 2 5.11111 2.14766 5.11111 2.32812V3.75H3.5C2.67188 3.75 2 4.33789 2 5.0625V14.6875C2 15.4121 2.67188 16 3.5 16H14.5C15.3281 16 16 15.4121 16 14.6875ZM14.5 6.375V14.5234C14.5 14.6137 14.4156 14.6875 14.3125 14.6875H3.6875C3.58438 14.6875 3.5 14.6137 3.5 14.5234V6.375H14.5Z" fill="#4D5E6E"/>
<path d="M10.5 10.25C9.39516 10.25 8.5 11.1452 8.5 12.25C8.5 13.3548 9.39516 14.25 10.5 14.25C11.6048 14.25 12.5 13.3548 12.5 12.25C12.5 11.1452 11.6048 10.25 10.5 10.25ZM11.2459 12.7742L11.0846 12.9758C11.074 12.989 11.0609 13.0001 11.0461 13.0082C11.0312 13.0164 11.0149 13.0216 10.9981 13.0235C10.9812 13.0253 10.9642 13.0239 10.9479 13.0191C10.9316 13.0144 10.9165 13.0066 10.9032 12.996L10.3629 12.595C10.3251 12.5648 10.2947 12.5264 10.2737 12.4828C10.2528 12.4393 10.2419 12.3915 10.2419 12.3431V11.0887C10.2419 11.0545 10.2555 11.0217 10.2797 10.9975C10.3039 10.9733 10.3367 10.9597 10.371 10.9597H10.629C10.6633 10.9597 10.6961 10.9733 10.7203 10.9975C10.7445 11.0217 10.7581 11.0545 10.7581 11.0887V12.25L11.2258 12.5927C11.239 12.6033 11.2501 12.6164 11.2582 12.6313C11.2664 12.6461 11.2716 12.6625 11.2734 12.6793C11.2753 12.6962 11.2738 12.7132 11.2691 12.7295C11.2644 12.7458 11.2565 12.761 11.2459 12.7742Z" fill="#4D5E6E"/>
</svg>
