<svg width="18" height="18" viewBox="0 0 18 18" fill="none" xmlns="http://www.w3.org/2000/svg">
<path fill-rule="evenodd" clip-rule="evenodd" d="M9.66463 1.125C8.28317 1.125 7.06561 2.03817 6.67537 3.365C6.26171 3.17768 5.82463 3.07622 5.37195 3.07622C4.54396 3.07622 3.74988 3.40514 3.1644 3.99062C2.57892 4.5761 2.25 5.37018 2.25 6.19817C2.25185 6.88955 2.48258 7.56087 2.90617 8.1073C3.32976 8.65373 3.92237 9.04452 4.59146 9.21866L4.98046 13.7713C4.99151 13.9006 5.09973 14 5.22955 14H13.7856C13.909 14 14.0139 13.91 14.0327 13.7881L14.7378 9.21866C16.1115 8.85963 17.0793 7.61866 17.0793 6.19817C17.0793 5.37018 16.7503 4.5761 16.1649 3.99062C15.5794 3.40514 14.7853 3.07622 13.9573 3.07622C13.5046 3.07622 13.0676 3.17768 12.6539 3.365C12.2637 2.03817 11.0461 1.125 9.66463 1.125ZM5 15.7805V15.25C5 15.1119 5.11193 15 5.25 15H13.75C13.8881 15 14 15.1119 14 15.25V15.7805C14 15.9875 13.9271 16.186 13.7972 16.3324C13.6674 16.4787 13.4913 16.561 13.3077 16.561H5.69231C5.5087 16.561 5.33261 16.4787 5.20277 16.3324C5.07294 16.186 5 15.9875 5 15.7805ZM7.46474 5.41013C8.03304 4.83419 8.81184 4.50002 9.66568 4.50002C10.491 4.49729 11.2846 4.81744 11.877 5.39207C12.1666 5.67142 12.397 6.00618 12.5546 6.37642C12.7121 6.74665 12.7936 7.14479 12.7941 7.54715C12.7941 8.44545 12.3884 9.24441 11.67 9.93498L11.117 12.0539C11.0656 12.2721 10.944 12.4569 10.7835 12.5917C10.6182 12.7296 10.4144 12.8132 10.1999 12.8314L10.1853 12.8327L9.22382 12.8355C8.99803 12.8355 8.78475 12.7647 8.61037 12.6396C8.44224 12.5194 8.30885 12.3478 8.23938 12.1415L8.23451 12.1262L7.7468 10.083C6.99509 9.2979 6.57964 8.54202 6.54004 7.68332V7.66943L6.54073 7.65623C6.56852 6.75584 6.91034 5.97287 7.46474 5.41013ZM8.74165 5.3733C8.4487 5.49418 8.18295 5.67254 7.96009 5.89784V5.89853C7.5363 6.32788 7.26118 6.93717 7.23478 7.66526C7.26882 8.30651 7.58285 8.92621 8.31094 9.66542L8.37832 9.73489L8.62079 10.752H10.7391L11.0489 9.56468L11.1239 9.49521C11.7846 8.88453 12.0994 8.23495 12.0994 7.54646C12.0989 7.23687 12.0362 6.93053 11.9148 6.64573C11.7934 6.36093 11.6159 6.1035 11.3928 5.88881C10.93 5.4405 10.31 5.19113 9.66568 5.19406C9.34879 5.19148 9.03459 5.25243 8.74165 5.3733ZM10.5584 11.4467H8.78683H8.78614L8.90216 11.9324C8.9249 11.99 8.96402 12.0398 9.01471 12.0755C9.07562 12.1186 9.14848 12.1417 9.22313 12.1415L10.152 12.138C10.2203 12.13 10.2847 12.1022 10.3375 12.0581C10.3895 12.0154 10.426 11.9568 10.4417 11.8914L10.4438 11.8823L10.5584 11.4467Z" fill="#4D5E6E"/>
</svg>
