<svg width="18" height="18" viewBox="0 0 18 18" fill="none" xmlns="http://www.w3.org/2000/svg">
<path d="M15.5 17H6.5C6.36739 17 6.24021 16.9473 6.14645 16.8536C6.05268 16.7598 6 16.6326 6 16.5V5.5C6 5.36739 6.05268 5.24021 6.14645 5.14645C6.24021 5.05268 6.36739 5 6.5 5H15.5C15.6326 5 15.7598 5.05268 15.8536 5.14645C15.9473 5.24021 16 5.36739 16 5.5V16.5C16 16.6326 15.9473 16.7598 15.8536 16.8536C15.7598 16.9473 15.6326 17 15.5 17ZM7 16H15V6H7V16Z" fill="#4D5E6E"/>
<path d="M8 8H14V9H8V8Z" fill="#4D5E6E"/>
<path d="M8 10H14V11H8V10Z" fill="#4D5E6E"/>
<path d="M8 12H14V13H8V12Z" fill="#4D5E6E"/>
<path d="M3 12V2H12V1.5C12 1.36739 11.9473 1.24021 11.8536 1.14645C11.7598 1.05268 11.6326 1 11.5 1H2.5C2.36739 1 2.24021 1.05268 2.14645 1.14645C2.05268 1.24021 2 1.36739 2 1.5V12.5C2 12.6326 2.05268 12.7598 2.14645 12.8536C2.24021 12.9473 2.36739 13 2.5 13H3V12Z" fill="#4D5E6E"/>
<path d="M5 14V4H14V3.5C14 3.36739 13.9473 3.24021 13.8536 3.14645C13.7598 3.05268 13.6326 3 13.5 3H4.5C4.36739 3 4.24021 3.05268 4.14645 3.14645C4.05268 3.24021 4 3.36739 4 3.5V14.5C4 14.6326 4.05268 14.7598 4.14645 14.8536C4.24021 14.9473 4.36739 15 4.5 15H5V14Z" fill="#4D5E6E"/>
</svg>
