<svg width="18" height="18" viewBox="0 0 18 18" fill="none" xmlns="http://www.w3.org/2000/svg">
<path d="M16 2.5H2C1.73478 2.5 1.48043 2.60536 1.29289 2.79289C1.10536 2.98043 1 3.23478 1 3.5V14.5C1 14.7652 1.10536 15.0196 1.29289 15.2071C1.48043 15.3946 1.73478 15.5 2 15.5H16C16.2652 15.5 16.5196 15.3946 16.7071 15.2071C16.8946 15.0196 17 14.7652 17 14.5V3.5C17 3.23478 16.8946 2.98043 16.7071 2.79289C16.5196 2.60536 16.2652 2.5 16 2.5ZM2 14.5V3.5H16V14.5H2Z" fill="#4D5E6E"/>
<path d="M3.5 5H6.5V13H5.7V5.8H4.3V13H3.5V5Z" fill="#4D5E6E"/>
<path d="M7.5 9.5H10.5V13H9.7V10.3H8.3V13H7.5V9.5Z" fill="#4D5E6E"/>
<path d="M11.5 8H14.5V13H13.7V8.8H12.3V13H11.5V8Z" fill="#4D5E6E"/>
</svg>
