<svg xmlns="http://www.w3.org/2000/svg" width="513.8193" height="644.9716" data-name="Layer 1">
  <path fill="#fff" d="M124.3192 137.435H2.4998V29.0481h121.8194z"/>
  <path fill="#ccc" d="M126.8193 139.935H0V26.5483h126.8193zM5 134.935h116.8193V31.5483H5z"/>
  <path fill="#ffb7b7" d="M147.753 586.078l-12.26-.001-5.833-47.288 18.095.001-.002 47.288z"/>
  <path fill="#2f2e41" d="M150.8792 597.9616l-39.5308-.0014v-.5a15.3873 15.3873 0 0115.3865-15.3863h.001l24.144.001z"/>
  <path fill="#ffb7b7" d="M262.162 578.548l-11.975 2.629-15.838-44.937 17.674-3.88 10.139 46.188z"/>
  <path fill="#2f2e41" d="M267.7644 589.4852l-38.6113 8.4764-.1072-.4883a15.3873 15.3873 0 0111.7287-18.328l.001-.0002 23.5824-5.177z"/>
  <path fill="#00bfa6" d="M113.344 419.963L52.7883 433.025c-11.614-21.8945-14.2238-44.7646-14.3205-66.3923l60.5554-13.0618a135.601 135.601 0 0014.3208 66.3923z"/>
  <path fill="#fff" d="M52.282 378.755l-.516-2.3 31.47-6.358.516 2.3-31.47 6.358zM54.346 387.953l-.516-2.299 31.47-6.358.516 2.3-31.47 6.357zM56.41 397.152l-.516-2.3 31.47-6.357.516 2.299-31.47 6.358zM58.474 406.351l-.516-2.3 31.47-6.358.516 2.3-31.47 6.358zM60.538 415.549l-.516-2.299 31.47-6.358.516 2.299-31.47 6.358z"/>
  <path fill="#ffb7b7" d="M251.411 366.3019a11.6262 11.6262 0 00-4.982-17.117l.5487-26.562-16.0604-4.2704-.248 37.5216a11.6891 11.6891 0 0020.7416 10.4278z"/>
  <path fill="#00bfa6" d="M97.1523 119.3644l-61.9325-1.4022c-6.1949-23.9974-3.406-46.8464 1.5376-67.9018l61.9323 1.4022a135.6008 135.6008 0 00-1.5374 67.9018z"/>
  <path fill="#fff" d="M47.368 65.067l.033-2.357 32.086 1.147-.034 2.357-32.085-1.147zM47.233 74.493l.033-2.356 32.086 1.147-.034 2.356-32.085-1.147zM47.097 83.92l.034-2.357 32.086 1.147-.034 2.357-32.086-1.147zM46.962 93.346l.034-2.357 32.086 1.147-.034 2.357-32.086-1.147zM46.827 102.772l.034-2.356 32.085 1.147-.033 2.356-32.086-1.147z"/>
  <circle cx="126.7109" cy="22.4594" r="22.4594" fill="#00bfa6"/>
  <path fill="#fff" d="M125.91 33.403l-8.506-10.397 1.338-1.094 7.042 8.608 12.307-18.049 1.427.973-13.608 19.959zM511.3192 328.435H389.4998V220.0481h121.8194z"/>
  <path fill="#e6e6e6" d="M513.8193 330.935H387V217.5483h126.8193zm-121.8193-5h116.8193V222.5483H392z"/>
  <path fill="#fff" d="M511.3192 137.435H389.4998V29.0481h121.8194z"/>
  <path fill="#e6e6e6" d="M513.8193 139.935H387V26.5483h126.8193zm-121.8193-5h116.8193V31.5483H392z"/>
  <path fill="#fff" d="M317.3192 328.435H195.4998V220.0481h121.8194z"/>
  <path fill="#ccc" d="M319.8193 330.935H193V217.5483h126.8193zm-121.8193-5h116.8193V222.5483H198z"/>
  <path fill="#fff" d="M124.3192 328.435H2.4998V220.0481h121.8194z"/>
  <path fill="#e6e6e6" d="M126.8193 330.935H0V217.5483h126.8193zM5 325.935h116.8193V222.5483H5z"/>
  <path fill="#fff" d="M317.3192 137.435H195.4998V29.0481h121.8194z"/>
  <path fill="#e6e6e6" d="M319.8193 139.935H193V26.5483h126.8193zm-121.8193-5h116.8193V31.5483H198zM300.4084 641.7582l16.2742-31.5413c30.0321 4.9404 35.3327 3.9309 61.5765.5237l6.9777 34.231a378.1662 378.1662 0 00-84.8284-3.2134z"/>
  <path fill="#fff" d="M368.304 636.07l-.51-17.734 1.864.07.51 17.734-1.864-.07zM360.847 635.787l-.511-17.734 1.865.071.51 17.734-1.864-.071zM353.389 635.505l-.51-17.734 1.864.07.511 17.734-1.865-.07z"/>
  <path fill="#2f2e41" d="M125.302 324.4797s-5.9105 2.3642 0 92.202l2.364 146.5773h23.6416l26.6097-199.1986 32.494 92.8118 29.5519 109.933 23.6415-5.9104s-24.8236-222.2302-46.101-236.415-92.2018 0-92.2018 0z"/>
  <circle cx="172.7767" cy="117.9448" r="24.5694" fill="#ffb8b8"/>
  <path fill="#3f3d56" d="M196.2264 157.807s-21.2773-10.6386-41.3726-3.5462-30.734 15.367-30.734 15.367l13.0028 68.5604-17.731 92.2019s91.0198-7.0925 99.2943 0 8.2745-8.2746 8.2745-8.2746l-7.0925-87.4735 13.0029-55.5576z"/>
  <path fill="#2f2e41" d="M151.8686 116.2499l5.201 13.2884c2.1314 5.4454 4.5725 11.2714 9.5684 14.3104 6.1683 3.7521 14.4056 1.9226 20.3727-2.142a31.8131 31.8131 0 00-14.3193-57.9028l-.247 4.4476-5.4576-4.5747a5.306 5.306 0 01-8.2479 1.1664c1.4337 2.9718-.221 6.5963-2.6104 8.8728-2.9358 2.7966-11.332 6.1577-10.9835 11.157.2324 3.3364 5.3704 7.9195 6.7236 11.3769z"/>
  <path fill="#ffb7b7" d="M106.4222 367.8748a11.6261 11.6261 0 00.0242-17.8273l7.9841-25.3397-14.2154-8.6076-10.7725 35.9428a11.6891 11.6891 0 0016.9796 15.8318z"/>
  <path fill="#3f3d56" d="M132.3943 169.6278h-8.2745s-13.0028 8.2745-13.0028 20.0953-18.9132 150.1236-18.9132 150.1236l20.0953 3.5462 17.7311-96.9302 13.0029-26.0057zM210.4114 179.0844h22.4594s7.0925 7.0925 10.6387 23.6416 7.0924 81.5632 7.0924 81.5632l-2.3641 59.1038h-17.7311l-2.3642-76.835-11.8207-49.6471z"/>
  <path fill="#cbcbcb" d="M383.8977 599.0604h-381a1 1 0 010-2h381a1 1 0 010 2z"/>
</svg>
