<svg xmlns="http://www.w3.org/2000/svg" viewBox="0 0 284 138"><defs><style>.cls-1{fill:#005530;fill-opacity:0.1;fill-rule:evenodd;}</style></defs><g id="Layer_2" data-name="Layer 2"><g id="Layer_1-2" data-name="Layer 1"><path class="cls-1" d="M0,0H284V5.75A4.13,4.13,0,0,0,280,10a4.13,4.13,0,0,0,4,4.25V20.5a4.26,4.26,0,0,0,0,8.5v6.25a4.26,4.26,0,0,0,0,8.5V50a4.26,4.26,0,0,0,0,8.5v6.25a4.26,4.26,0,0,0,0,8.5V79.5a4.26,4.26,0,0,0,0,8.5v6.25a4.26,4.26,0,0,0,0,8.5V109a4.26,4.26,0,0,0,0,8.5v6.25a4.26,4.26,0,0,0,0,8.5V138H0v-5.75A4.13,4.13,0,0,0,4,128a4.13,4.13,0,0,0-4-4.25V117.5a4.13,4.13,0,0,0,4-4.25A4.13,4.13,0,0,0,0,109v-6.25A4.13,4.13,0,0,0,4,98.5a4.13,4.13,0,0,0-4-4.25V88a4.13,4.13,0,0,0,4-4.25A4.13,4.13,0,0,0,0,79.5V73.25A4.13,4.13,0,0,0,4,69a4.13,4.13,0,0,0-4-4.25V58.5a4.13,4.13,0,0,0,4-4.25A4.13,4.13,0,0,0,0,50V43.75A4.13,4.13,0,0,0,4,39.5a4.13,4.13,0,0,0-4-4.25V29a4.13,4.13,0,0,0,4-4.25A4.13,4.13,0,0,0,0,20.5V14.25A4.13,4.13,0,0,0,4,10,4.13,4.13,0,0,0,0,5.75Z"/></g></g></svg>