<svg width="284" height="138" viewBox="0 0 284 138" fill="none" xmlns="http://www.w3.org/2000/svg">
<mask id="path-1-inside-1" fill="white">
<path fill-rule="evenodd" clip-rule="evenodd" d="M0 0H284V5.75C281.791 5.75 280 7.65279 280 10C280 12.3472 281.791 14.25 284 14.25V20.5C281.791 20.5 280 22.4028 280 24.75C280 27.0972 281.791 29 284 29V35.25C281.791 35.25 280 37.1528 280 39.5C280 41.8472 281.791 43.75 284 43.75V50C281.791 50 280 51.9028 280 54.25C280 56.5972 281.791 58.5 284 58.5V64.75C281.791 64.75 280 66.6528 280 69C280 71.3472 281.791 73.25 284 73.25V79.5C281.791 79.5 280 81.4028 280 83.75C280 86.0972 281.791 88 284 88V94.25C281.791 94.25 280 96.1528 280 98.5C280 100.847 281.791 102.75 284 102.75V109C281.791 109 280 110.903 280 113.25C280 115.597 281.791 117.5 284 117.5V123.75C281.791 123.75 280 125.653 280 128C280 130.347 281.791 132.25 284 132.25V138H0V132.25C2.20914 132.25 4 130.347 4 128C4 125.653 2.20914 123.75 0 123.75V117.5C2.20914 117.5 4 115.597 4 113.25C4 110.903 2.20914 109 0 109V102.75C2.20914 102.75 4 100.847 4 98.5C4 96.1528 2.20914 94.25 0 94.25V88C2.20914 88 4 86.0972 4 83.75C4 81.4028 2.20914 79.5 0 79.5V73.25C2.20914 73.25 4 71.3472 4 69C4 66.6528 2.20914 64.75 0 64.75V58.5C2.20914 58.5 4 56.5972 4 54.25C4 51.9028 2.20914 50 0 50V43.75C2.20914 43.75 4 41.8472 4 39.5C4 37.1528 2.20914 35.25 0 35.25V29C2.20914 29 4 27.0972 4 24.75C4 22.4028 2.20914 20.5 0 20.5V14.25C2.20914 14.25 4 12.3472 4 10C4 7.65279 2.20914 5.75 0 5.75V0Z"/>
</mask>
<path fill-rule="evenodd" clip-rule="evenodd" d="M0 0H284V5.75C281.791 5.75 280 7.65279 280 10C280 12.3472 281.791 14.25 284 14.25V20.5C281.791 20.5 280 22.4028 280 24.75C280 27.0972 281.791 29 284 29V35.25C281.791 35.25 280 37.1528 280 39.5C280 41.8472 281.791 43.75 284 43.75V50C281.791 50 280 51.9028 280 54.25C280 56.5972 281.791 58.5 284 58.5V64.75C281.791 64.75 280 66.6528 280 69C280 71.3472 281.791 73.25 284 73.25V79.5C281.791 79.5 280 81.4028 280 83.75C280 86.0972 281.791 88 284 88V94.25C281.791 94.25 280 96.1528 280 98.5C280 100.847 281.791 102.75 284 102.75V109C281.791 109 280 110.903 280 113.25C280 115.597 281.791 117.5 284 117.5V123.75C281.791 123.75 280 125.653 280 128C280 130.347 281.791 132.25 284 132.25V138H0V132.25C2.20914 132.25 4 130.347 4 128C4 125.653 2.20914 123.75 0 123.75V117.5C2.20914 117.5 4 115.597 4 113.25C4 110.903 2.20914 109 0 109V102.75C2.20914 102.75 4 100.847 4 98.5C4 96.1528 2.20914 94.25 0 94.25V88C2.20914 88 4 86.0972 4 83.75C4 81.4028 2.20914 79.5 0 79.5V73.25C2.20914 73.25 4 71.3472 4 69C4 66.6528 2.20914 64.75 0 64.75V58.5C2.20914 58.5 4 56.5972 4 54.25C4 51.9028 2.20914 50 0 50V43.75C2.20914 43.75 4 41.8472 4 39.5C4 37.1528 2.20914 35.25 0 35.25V29C2.20914 29 4 27.0972 4 24.75C4 22.4028 2.20914 20.5 0 20.5V14.25C2.20914 14.25 4 12.3472 4 10C4 7.65279 2.20914 5.75 0 5.75V0Z" fill="white"/>
<path d="M284 0H285V-1H284V0ZM0 0V-1H-1V0H0ZM284 5.75V6.75H285V5.75H284ZM284 14.25H285V13.25H284V14.25ZM284 20.5V21.5H285V20.5H284ZM284 29H285V28H284V29ZM284 35.25V36.25H285V35.25H284ZM284 43.75H285V42.75H284V43.75ZM284 50V51H285V50H284ZM284 58.5H285V57.5H284V58.5ZM284 64.75V65.75H285V64.75H284ZM284 73.25H285V72.25H284V73.25ZM284 79.5V80.5H285V79.5H284ZM284 88H285V87H284V88ZM284 94.25V95.25H285V94.25H284ZM284 102.75H285V101.75H284V102.75ZM284 109V110H285V109H284ZM284 117.5H285V116.5H284V117.5ZM284 123.75V124.75H285V123.75H284ZM284 132.25H285V131.25H284V132.25ZM284 138V139H285V138H284ZM0 138H-1V139H0V138ZM0 132.25V131.25H-1V132.25H0ZM0 123.75H-1V124.75H0V123.75ZM0 117.5V116.5H-1V117.5H0ZM0 109H-1V110H0V109ZM0 102.75V101.75H-1V102.75H0ZM0 94.25H-1V95.25H0V94.25ZM0 88V87H-1V88H0ZM0 79.5H-1V80.5H0V79.5ZM0 73.25V72.25H-1V73.25H0ZM0 64.75H-1V65.75H0V64.75ZM0 58.5V57.5H-1V58.5H0ZM0 50H-1V51H0V50ZM0 43.75V42.75H-1V43.75H0ZM0 35.25H-1V36.25H0V35.25ZM0 29V28H-1V29H0ZM0 20.5H-1V21.5H0V20.5ZM0 14.25V13.25H-1V14.25H0ZM0 5.75H-1V6.75H0V5.75ZM284 -1H0V1H284V-1ZM285 5.75V0H283V5.75H285ZM281 10C281 8.1471 282.399 6.75 284 6.75V4.75C281.182 4.75 279 7.15848 279 10H281ZM284 13.25C282.399 13.25 281 11.8529 281 10H279C279 12.8415 281.182 15.25 284 15.25V13.25ZM285 20.5V14.25H283V20.5H285ZM281 24.75C281 22.8971 282.399 21.5 284 21.5V19.5C281.182 19.5 279 21.9085 279 24.75H281ZM284 28C282.399 28 281 26.6029 281 24.75H279C279 27.5915 281.182 30 284 30V28ZM285 35.25V29H283V35.25H285ZM281 39.5C281 37.6471 282.399 36.25 284 36.25V34.25C281.182 34.25 279 36.6585 279 39.5H281ZM284 42.75C282.399 42.75 281 41.3529 281 39.5H279C279 42.3415 281.182 44.75 284 44.75V42.75ZM285 50V43.75H283V50H285ZM281 54.25C281 52.3971 282.399 51 284 51V49C281.182 49 279 51.4085 279 54.25H281ZM284 57.5C282.399 57.5 281 56.1029 281 54.25H279C279 57.0915 281.182 59.5 284 59.5V57.5ZM285 64.75V58.5H283V64.75H285ZM281 69C281 67.1471 282.399 65.75 284 65.75V63.75C281.182 63.75 279 66.1585 279 69H281ZM284 72.25C282.399 72.25 281 70.8529 281 69H279C279 71.8415 281.182 74.25 284 74.25V72.25ZM285 79.5V73.25H283V79.5H285ZM281 83.75C281 81.8971 282.399 80.5 284 80.5V78.5C281.182 78.5 279 80.9085 279 83.75H281ZM284 87C282.399 87 281 85.6029 281 83.75H279C279 86.5915 281.182 89 284 89V87ZM285 94.25V88H283V94.25H285ZM281 98.5C281 96.6471 282.399 95.25 284 95.25V93.25C281.182 93.25 279 95.6585 279 98.5H281ZM284 101.75C282.399 101.75 281 100.353 281 98.5H279C279 101.342 281.182 103.75 284 103.75V101.75ZM285 109V102.75H283V109H285ZM281 113.25C281 111.397 282.399 110 284 110V108C281.182 108 279 110.408 279 113.25H281ZM284 116.5C282.399 116.5 281 115.103 281 113.25H279C279 116.092 281.182 118.5 284 118.5V116.5ZM285 123.75V117.5H283V123.75H285ZM281 128C281 126.147 282.399 124.75 284 124.75V122.75C281.182 122.75 279 125.158 279 128H281ZM284 131.25C282.399 131.25 281 129.853 281 128H279C279 130.842 281.182 133.25 284 133.25V131.25ZM285 138V132.25H283V138H285ZM0 139H284V137H0V139ZM-1 132.25V138H1V132.25H-1ZM3 128C3 129.853 1.60061 131.25 0 131.25V133.25C2.81767 133.25 5 130.842 5 128H3ZM0 124.75C1.60061 124.75 3 126.147 3 128H5C5 125.158 2.81767 122.75 0 122.75V124.75ZM-1 117.5V123.75H1V117.5H-1ZM3 113.25C3 115.103 1.60061 116.5 0 116.5V118.5C2.81767 118.5 5 116.092 5 113.25H3ZM0 110C1.60061 110 3 111.397 3 113.25H5C5 110.408 2.81767 108 0 108V110ZM-1 102.75V109H1V102.75H-1ZM3 98.5C3 100.353 1.60061 101.75 0 101.75V103.75C2.81767 103.75 5 101.342 5 98.5H3ZM0 95.25C1.60061 95.25 3 96.6471 3 98.5H5C5 95.6585 2.81767 93.25 0 93.25V95.25ZM-1 88V94.25H1V88H-1ZM3 83.75C3 85.6029 1.60061 87 0 87V89C2.81767 89 5 86.5915 5 83.75H3ZM0 80.5C1.60061 80.5 3 81.8971 3 83.75H5C5 80.9085 2.81767 78.5 0 78.5V80.5ZM-1 73.25V79.5H1V73.25H-1ZM3 69C3 70.8529 1.60061 72.25 0 72.25V74.25C2.81767 74.25 5 71.8415 5 69H3ZM0 65.75C1.60061 65.75 3 67.1471 3 69H5C5 66.1585 2.81767 63.75 0 63.75V65.75ZM-1 58.5V64.75H1V58.5H-1ZM3 54.25C3 56.1029 1.60061 57.5 0 57.5V59.5C2.81767 59.5 5 57.0915 5 54.25H3ZM0 51C1.60061 51 3 52.3971 3 54.25H5C5 51.4085 2.81767 49 0 49V51ZM-1 43.75V50H1V43.75H-1ZM3 39.5C3 41.3529 1.60061 42.75 0 42.75V44.75C2.81767 44.75 5 42.3415 5 39.5H3ZM0 36.25C1.60061 36.25 3 37.6471 3 39.5H5C5 36.6585 2.81767 34.25 0 34.25V36.25ZM-1 29V35.25H1V29H-1ZM3 24.75C3 26.6029 1.60061 28 0 28V30C2.81767 30 5 27.5915 5 24.75H3ZM0 21.5C1.60061 21.5 3 22.8971 3 24.75H5C5 21.9085 2.81767 19.5 0 19.5V21.5ZM-1 14.25V20.5H1V14.25H-1ZM3 10C3 11.8529 1.60061 13.25 0 13.25V15.25C2.81767 15.25 5 12.8415 5 10H3ZM0 6.75C1.60061 6.75 3 8.1471 3 10H5C5 7.15848 2.81767 4.75 0 4.75V6.75ZM-1 0V5.75H1V0H-1Z" fill="#CED4DA" mask="url(#path-1-inside-1)"/>
</svg>
