<svg width="24" height="24" viewBox="0 0 24 24" fill="none" xmlns="http://www.w3.org/2000/svg">
<path fill-rule="evenodd" clip-rule="evenodd" d="M7.89781 8.33518C7.79232 8.44067 7.64925 8.49993 7.50007 8.49993C7.35088 8.49993 7.20781 8.44067 7.10232 8.33518C6.99684 8.22969 6.93757 8.08662 6.93757 7.93744V4.56249C6.93757 4.41331 6.99684 4.27024 7.10232 4.16475C7.20781 4.05926 7.35088 4 7.50007 4C7.64925 4 7.79232 4.05926 7.89781 4.16475C8.00329 4.27024 8.06256 4.41331 8.06256 4.56249V7.93744C8.06256 8.08662 8.00329 8.22969 7.89781 8.33518ZM18.1874 6.24996H20.0155C20.147 6.25216 20.2768 6.28024 20.3974 6.3326C20.518 6.38496 20.6272 6.46057 20.7186 6.55511C20.81 6.64965 20.8819 6.76128 20.9301 6.88361C20.9784 7.00594 21.0021 7.13658 20.9999 7.26807V19.8566C21.0021 19.9881 20.9784 20.1188 20.9301 20.2411C20.8819 20.3634 20.81 20.475 20.7186 20.5696C20.6272 20.6641 20.518 20.7397 20.3974 20.7921C20.2768 20.8445 20.147 20.8725 20.0155 20.8747H3.9845C3.85301 20.8725 3.72325 20.8445 3.60261 20.7921C3.48197 20.7397 3.37283 20.6641 3.28142 20.5696C3.19001 20.475 3.11813 20.3634 3.06986 20.2411C3.0216 20.1188 2.99791 19.9881 3.00014 19.8566V7.26807C2.99791 7.13658 3.0216 7.00594 3.06986 6.88361C3.11813 6.76128 3.19001 6.64965 3.28142 6.55511C3.37283 6.46057 3.48197 6.38496 3.60261 6.3326C3.72325 6.28024 3.85301 6.25216 3.9845 6.24996H5.8126V7.37495H4.12513V19.7497H19.8749V7.37495H18.1874V6.24996ZM7.50007 11.8749V10.7499H6.37508V11.8749H7.50007ZM9.75003 10.7499H10.875V11.8749H9.75003V10.7499ZM14.25 10.7499H13.125V11.8749H14.25V10.7499ZM17.6249 10.7499V11.8749H16.4999V10.7499H17.6249ZM7.50007 14.6873V13.5623H6.37508V14.6873H7.50007ZM9.75003 13.5623H10.875V14.6873H9.75003V13.5623ZM14.25 13.5623H13.125V14.6873H14.25V13.5623ZM17.6249 13.5623V14.6873H16.4999V13.5623H17.6249ZM7.50007 17.4998V16.3748H6.37508V17.4998H7.50007ZM9.75003 16.3748H10.875V17.4998H9.75003V16.3748ZM14.25 16.3748H13.125V17.4998H14.25V16.3748ZM17.6249 16.3748V17.4998H16.4999V16.3748H17.6249ZM16.4999 8.49993C16.6491 8.49993 16.7922 8.44067 16.8977 8.33518C17.0032 8.22969 17.0624 8.08662 17.0624 7.93744V4.56249C17.0624 4.41331 17.0032 4.27024 16.8977 4.16475C16.7922 4.05926 16.6491 4 16.4999 4C16.3507 4 16.2077 4.05926 16.1022 4.16475C15.9967 4.27024 15.9374 4.41331 15.9374 4.56249V7.93744C15.9374 8.08662 15.9967 8.22969 16.1022 8.33518C16.2077 8.44067 16.3507 8.49993 16.4999 8.49993ZM14.8124 6.24996H9.18754V7.37495H14.8124V6.24996Z" fill="#01683A"/>
</svg>
