<svg width="24" height="24" viewBox="0 0 24 24" fill="none" xmlns="http://www.w3.org/2000/svg">
<path fill-rule="evenodd" clip-rule="evenodd" d="M7.24978 11.97C7.4344 12.1584 7.68598 12.2662 7.94974 12.27C8.14835 12.2711 8.34281 12.2131 8.50832 12.1033C8.67383 11.9935 8.8029 11.8369 8.87906 11.6535C8.95522 11.4701 8.97503 11.2681 8.93597 11.0734C8.8969 10.8786 8.80072 10.6999 8.6597 10.5601L6.84963 8.75H20.0049C20.5572 8.75 21.0049 8.30228 21.0049 7.75C21.0049 7.19772 20.5572 6.75 20.0049 6.75H6.81007L8.6597 4.90037C8.82352 4.70908 8.90912 4.46302 8.8994 4.21135C8.88968 3.95969 8.78535 3.72096 8.60727 3.54288C8.42918 3.36479 8.19046 3.26047 7.93879 3.25075C7.68713 3.24103 7.44107 3.32663 7.24978 3.49044L3 7.73022L7.24978 11.97Z" fill="#424C55"/>
<line x1="1" y1="-1" x2="11" y2="-1" transform="matrix(1 0 0 -1 9 13.27)" stroke="#424C55" stroke-width="2" stroke-linecap="round"/>
<line x1="1" y1="-1" x2="7" y2="-1" transform="matrix(1 0 0 -1 13 18.77)" stroke="#424C55" stroke-width="2" stroke-linecap="round"/>
</svg>
