<svg xmlns="http://www.w3.org/2000/svg" fill="none" viewBox="0 0 196 34">
  <g fill="#fff" clip-path="url(#clip0)">
    <path d="M45.4043 26.7248c-.6608-.2912-1.4785-.4928-2.3633-.4928-2.4528 0-3.92 1.4224-3.92 3.696 0 2.4192 1.4897 3.64 3.8305 3.64.8288 0 1.8368-.1904 2.3744-.4704l-.4817-1.8928c-.5488.3248-1.1312.5152-1.7808.5152-1.1312 0-1.7248-.7056-1.7248-1.8368 0-1.1088.6608-1.8032 1.7248-1.8032.56 0 1.2097.1904 1.6801.4704l.6608-1.8256zm9.5185 3.1472c0-2.4416-1.6352-3.64-3.7296-3.64-2.0944 0-3.7632 1.4-3.7632 3.6848 0 2.4416 1.6352 3.6512 3.7296 3.6512 2.0944 0 3.7632-1.4112 3.7632-3.696zm-2.2176.0448c0 1.12-.504 1.9152-1.512 1.9152-1.0192 0-1.5456-.8064-1.5456-1.96 0-1.12.4928-1.904 1.512-1.904s1.5456.7952 1.5456 1.9488zm12.1563-.0448c0-2.4416-1.6352-3.64-3.7296-3.64-2.0944 0-3.7632 1.4-3.7632 3.6848 0 2.4416 1.6352 3.6512 3.7296 3.6512 2.0944 0 3.7632-1.4112 3.7632-3.696zm-2.2176.0448c0 1.12-.504 1.9152-1.512 1.9152-1.0192 0-1.5455-.8064-1.5455-1.96 0-1.12.4927-1.904 1.5119-1.904s1.5456.7952 1.5456 1.9488zm7.1275-.5488V26.4H67.565v7h2.2064v-2.9568h.0112l1.96 2.9568h2.5872l-2.5984-3.6064 2.52-3.3936h-2.4752l-1.9936 2.968h-.0112zM78.89 33.4v-7h-2.2064v7H78.89zm7.835-3.024L84.2386 26.4h-2.3744v7h2.0496v-3.9648l2.52 4.032h2.3412V26.4h-2.05v3.976zm11.587 2.5536v-3.6624H94.75v1.6912h1.602v.7056c-.224.0896-.605.1344-.908.1344-1.232 0-1.769-.6832-1.769-1.9152 0-1.064.683-1.8032 1.814-1.8032.65 0 1.288.168 2.016.5712l.683-1.8144c-.716-.4144-1.848-.6048-2.788-.6048-2.431 0-3.92 1.3664-3.92 3.696 0 2.352 1.556 3.64 3.897 3.64 1.154 0 2.162-.2464 2.935-.6384zm9.578-1.1424c-.885 0-1.825-.28-2.576-.6496l-.336 1.8032c.639.3472 1.725.6272 2.879.6272 2.027 0 3.08-.9632 3.08-2.3632 0-1.344-1.165-1.8256-2.274-2.1392-.694-.1904-1.366-.3472-1.366-.672 0-.28.246-.3696.672-.3696.728 0 1.68.2576 2.464.6384l.347-1.8032c-.672-.336-1.579-.616-2.823-.616-1.915 0-2.867.896-2.867 2.2624 0 1.4224 1.299 1.9152 2.33 2.2064.817.2352 1.31.336 1.31.672 0 .2912-.336.4032-.84.4032zm11.759-5.0624c-.661-.2912-1.478-.4928-2.363-.4928-2.453 0-3.92 1.4224-3.92 3.696 0 2.4192 1.49 3.64 3.83 3.64.829 0 1.837-.1904 2.375-.4704l-.482-1.8928c-.549.3248-1.131.5152-1.781.5152-1.131 0-1.724-.7056-1.724-1.8368 0-1.1088.66-1.8032 1.724-1.8032.56 0 1.21.1904 1.68.4704l.661-1.8256zm9.266 6.6752v-7h-2.207v2.5536h-2.285V26.4h-2.206v7h2.206v-2.6096h2.285V33.4h2.207zm10.192-3.528c0-2.4416-1.636-3.64-3.73-3.64-2.094 0-3.763 1.4-3.763 3.6848 0 2.4416 1.635 3.6512 3.729 3.6512 2.095 0 3.764-1.4112 3.764-3.696zm-2.218.0448c0 1.12-.504 1.9152-1.512 1.9152-1.019 0-1.546-.8064-1.546-1.96 0-1.12.493-1.904 1.512-1.904 1.02 0 1.546.7952 1.546 1.9488zm12.156-.0448c0-2.4416-1.635-3.64-3.729-3.64-2.095 0-3.764 1.4-3.764 3.6848 0 2.4416 1.636 3.6512 3.73 3.6512 2.094 0 3.763-1.4112 3.763-3.696zm-2.217.0448c0 1.12-.504 1.9152-1.512 1.9152-1.02 0-1.546-.8064-1.546-1.96 0-1.12.493-1.904 1.512-1.904 1.019 0 1.546.7952 1.546 1.9488zm9.826 3.4832v-1.8032h-2.699V26.4h-2.206v7h4.905z"/>
    <path fill-rule="evenodd" d="M24.7691 11.6754l.0975-.0314a.921.921 0 01.0554-.0155c.0781-.0203.1522-.0397.2049-.1414.0325-.1256-.0326-.2511-.1302-.3452l-.0649-.0628-.0977.0314c-1.9188.9415-3.9351 1.9143-5.919 2.7303-.4878.1255-1.0408.3138-1.5286.5021l-.0676.0247c-.9236.3383-1.9055.6978-2.7944.7285h-.0651c-1.7887.7218-4.0002 1.4122-6.2117 1.9457-.3137 0-.5968.0298-.87.0586-.1232.013-.2446.0258-.3659.0355-1.0732.1569-1.9513.2511-3.0246-.8159v.0314l-.0324-.0314c-.1141-.2202-.2782-.3438-.4266-.4555a10.7502 10.7502 0 01-.0614-.0466c-.1625-.0942-.2275-.157-.2275-.2511v-.6904c0-.0942 0-.1883-.0326-.3138 0-.0471-.0082-.102-.0163-.157-.008-.0549-.0162-.1098-.0162-.1569v-.0627h.1627l-.0976-.1569c-.1627-.3139-.1951-.4394-.1951-.5022v-.0313l.065-.0314c.0976-.0314.2277-.1256.3251-.3766.1953-.7532.748-1.6633 1.366-2.1026v-.0314c.1302-.1883.2602-.3452.4229-.5021a9.9843 9.9843 0 01.0902-.0984c.203-.2197.4146-.4488.5277-.749.065-.0314.4878-.251.4878-.251 1.2683-.6904 2.5368-1.4436 2.7643-2.0713.4229-.5962.8132-.8787 1.5611-.7218h.0976l.0325-.0941c.0933-.18.2459-.2166.4864-.2743l.2941-.0709v-.0942c.0326-.3452.3253-.4393.8131-.5335.05-.012.0988-.0229.1464-.0336.2001-.0447.3789-.0846.5366-.1861l.0325-.0313.0651-.157c.0975-.3138.2276-.6276.3902-.6276.2602.157.5204.251.8131.1883.4948-.0895.8425-.5762 1.1271-.9746l.0437-.061c.5204.3138.9106.0941 1.2358-.1256l.0618-.0381c.3307-.2053.617-.383 1.0765-.0874l.0652.0314.0649-.0314c.7961-.4432 1.8516-.4413 2.8409-.4396l.1838.0002h.1951c-.2277.5336-.4228.6905-.683.8788l-.3905.3189.0002-.0051-.0649.0314.0325-.0314c-.1626.0628-.2928.1883-.4229.3452l-.025.029c-.148.172-.2437.2832-.3978.2534h-.065l-.0326.0628c-.2601.408-.7155.5963-1.0407.7218-.0461.0222-.0922.0405-.1353.0577-.0788.0312-.1478.0587-.1898.0992-.3578.3138-.8132.5021-1.236.659-.3252.1256-.6504.2825-.9431.4708-.0976.0941-.1301.1569-.1301.251 0 .1256.1301.2197.2927.2825.0976.0628.1951.1255.2277.1569l.0325.0941.0975-.0313c.7481-.1256 1.5286-.408 2.2766-.7218 2.2766-.9101 3.9028-1.9771 5.0086-3.201l.0325-.0314v-.0314c.0325-.251.195-.408.3576-.5335.1301-.1256.2929-.2825.3579-.5335v-.0314l-.0325-.0314c-.1952-.4393-.4553-.5963-.7155-.7218-.2277-.1255-.4554-.2824-.6506-.6904v-.0314L22.7852.974c-.7461-.532-1.4274-.3774-1.9795-.252l-.0044.001c-.2601.0627-.5203.1255-.748.0941h-.065c-.5854.1883-1.1708.3138-1.7562.408l-.05.0093c-.8301.1539-1.6891.3132-2.4543.7439-1.3334.3766-2.992.91-4.1954 1.726-.0325 0-.0975.0314-.0975.0314-.683.2197-1.4636.4707-1.8538 1.1612-2.0488.8159-5.171 3.1382-6.7646 4.9898l-.3253.3138c-.2927.2197-.5854.4707-.5854.9415v.0627c-.5203.2511-.6504.8474-.748 1.4436l-.13.5963C.865 13.4642.8 13.7152.8 13.9663c0 .2311.053.4792.1068.7319.0193.0904.0387.1813.0558.2723.0976.3766.1953.7846.1953 1.1926v.0941l.0325.0314c1.6585 2.0085 2.927 2.793 3.87 2.4478.7807.3766 1.6588.2511 2.1792-.0941.943.0627 1.626-.2197 2.2764-.5335.683-.3138 1.3009-.5963 2.2116-.4394h.0325l.0325-.0314c.5589-.2995 1.177-.4561 1.7695-.6062l.0843-.0214c.8131-.1883 1.5611-.408 2.179-.8787.5854-.0942.9107-.2511 1.301-.4708.2277-.1255.5203-.251.9105-.4079l.1626-.0628c.3578-.1255.5854-.2511.6505-.5335.065-.0314.1951-.0628.2927-.0628.2276-.0313.5203-.0941.5854-.3765.3862.0573.6639-.1472.9073-.3266l.0346-.0254.0338-.0246a6.3786 6.3786 0 00.0841-.0666c.1258-.1007.2375-.1901.3712-.2159.3903-.2197.8131-.3452 1.2359-.4707.9757-.0942 1.9188-.3766 2.3741-1.4122zM195.902 7.5329l-.065-.2825h-.097l-.683-.0313c-.455-.0314-.943-.0628-1.399-.0314-.357-.0314-.748.0314-1.105.1255-.521.1255-1.041.2197-1.431-.0314l-.033-.0314-.455.0942c-.945.1953-1.4.2893-1.859.3433-.426.0502-.857.0658-1.686.096l-1.236.0628c-.598.0251-1.072.0904-1.487.1476l-.001.0002-.002.0003-.004.0004-.001.0002c-.101.0139-.199.0274-.294.0396-.813.1255-1.463.2197-2.537.0628-.117 0-.201.0493-.287.1003a1.402 1.402 0 01-.103.0566 1.826 1.826 0 00-.072.0383c-.051.0279-.101.0558-.123.0558 0 0-.032 0-.097-.1569l-.033-.1255-.13.0314c-.949.3662-1.221.3466-2.043.2875l-.071-.0051s-.358-.0314-.553-.0314c.098-.8159.455-1.2553.846-1.6946.047-.0576.096-.114.145-.1706.218-.2521.437-.5062.57-.8651l.033-.0313-.261-.7532-.422.408c-.326.1255-.651.4393-.976.7845-.423.4394-.846.8787-1.333.9101h-.033c-.39.7218-.878.9415-1.528 1.1925-.261.0942-.553.2197-.879.3766-.585.2197-1.235.2511-1.886.2511-.072.0033-.143.0063-.215.0092-.604.025-1.177.0486-1.671.2732h-.033c-.227.1883-.585.1883-.943.157-.455-.0314-.911-.0314-1.138.3765l-.065.0942.097.0628c.457.303 1.315.2433 2.2.1817.123-.0086.246-.0172.37-.0248.618-.0628 1.235-.1256 1.561-.0314-.228.1255-.521.2824-.521.2824l-.123.064c-.844.4392-2.048 1.0658-2.543 1.0658h-.066c-.227.0941-.909.4389-1.592.7839l-.001.0007c-.137.07-.272.1401-.401.2068-.39.2022-.721.3736-.868.4208l-.097.0314-.553.1569a9.193 9.193 0 01-.227.0562c-.289.0695-.582.1399-.814.289.033 0-1.593.5649-1.593.5649l-.216.079c-1.096.4015-1.947.7132-3.199.8311-.781.1569-1.626.3138-2.244-.0942.325-.3138.748-.4393 1.171-.5335.683-.1883 1.431-.4079 1.951-1.3808v-.0628c.098-.5648.325-.5648.715-.5021l.027.0022c.387.0315.886.0723.982-.7867v-.0314c0-1.0131-.405-1.3055-.788-1.5821l-.025-.0184s-.261-.2197-.326-.2825c.065-.1883.13-.251.163-.2824.065-.0314.163 0 .293.0628.162.0627.325.1255.488.0627h.065c.325-.2824.748-.3452 1.203-.408l.076-.0103c.208-.0283.437-.0593.639-.1152l.065-.0314.033-.0627c.098-.2197.228-.2197.488-.1883l.028.0001.032.0002c.249.0023.54.0049.72-.3142v-.0313c.065-.3766.033-.9101-.097-1.4122l-.033-.0942h-.065c-1.658-.0314-3.415.6904-4.585 1.3495-.683.1255-1.204.4079-1.724.7218l-.748.4079.065.0942.65 1.0984h.033c.293.0941.488.2196.683.3452.026.0169.052.0339.077.0506.163.1071.311.2047.508.2318-.39.5963-.975.816-1.593 1.0356-.293.0942-.618.2197-.911.3766l-.716.4394c-.292.1569-.325.3138-.357.5021 0 .0941-.033.1883-.163.3138-.683-.0314-1.691.1883-2.732.4394-2.016.5021-4.325 1.0356-5.464-.0628-.032-.0314-.097-.1569-.097-.1569-.098-.1569-.195-.3138-.195-.5021 0-.046.017-.1088.039-.1884.008-.0291.017-.0605.026-.0941 1.463-.1883 3.187-.5335 5.073-1.6632.326-.3452.488-.7846.586-1.5064v-.1569c0-.5335-.098-.8787-.326-1.067-.231-.1955-.514-.1922-.78-.1891-.033.0004-.065.0008-.098.0008-.227.0314-.455.0314-.552-.0628l-.066-.0627-.065.0627c-.516.4101-1.003.5195-1.516.6343l-.11.0248c-.65.1569-1.301.3138-1.951.9728-.325-.0941-.683.1883-1.008.5021-.228.2197-.521.4394-.683.408 0 0-.065-.0314-.098-.0628.618-.5335 1.138-1.2239 1.659-1.9143l.06-.0766c.048-.0616.097-.1235.145-.1855l.003-.0037.002-.003.004-.0051c.548-.7023 1.108-1.4196 1.77-1.8915l.065-.0627s-.065-.157-.065-.1883c.065-.0942.26-.3139.26-.3139.04-.0465.09-.105.146-.1718l.002-.002.001-.0017c.403-.4745 1.152-1.3583 1.379-1.3308l.131.0314.032-.1256c.032-.562.354-.8443.71-1.1562l.006-.005c.292-.251.585-.502.683-.8786v-.0628c-.033-.1255-.066-.3138-.066-.5021 0-.3138-.032-.5963-.195-.6904-.065-.0314-.13-.0628-.26 0l-.26.1883-.058.0399c-.667.4591-1.374.9462-1.406 1.4036-.39.3766-.813.9102-1.268 1.5064l-.004.0056-.001.0004c-.811 1.0341-1.72 2.1912-2.402 2.3791h-.032l-1.301 1.2553c-.376.2641-.762.5543-1.151.8477-.351.2643-.706.5313-1.061.7842-1.138.8787-2.113 1.6319-2.699 1.8829l-.032.0314-.033.0314c-.47.6048-.97.9182-1.588 1.3052l-.071.0442s-.617.3766-.683.4394c-.162 0-.26 0-.357.0628-.13.0941-.163.251-.163.3765-.032.2197-.065.3453-.293.408h-.032c-.13.0628-.293.1255-.52.1883-.228.0628-.456.1255-.618.2511-.423.5021-.911.5021-1.399.4707h-.358c0-.1255-.032-.3452-.032-.3452 0-.1883.358-.8787 1.041-1.3494.455-.408.65-.816.65-1.2553 0-.3139-.098-.6277-.228-1.0043v-.0627c-.055-.0715-.1-.1633-.147-.258-.035-.0716-.071-.1453-.113-.2128-.13-.3138-.293-.659-.618-.659-.227-.2197-.52-.3766-.845-.5335l-.095-.053c-.362-.2024-.731-.4091-.881-.6688 0-.1255-.065-.2197-.13-.2511-.065-.0314-.195-.0627-.423.0628-.325.1883-.78.7218-.78 1.2867v.0313c-.863.6312-1.535 1.3411-2.19 2.0337-.062.065-.123.1299-.185.1945l-.014.0158c-.873.9359-1.715 1.8388-2.783 2.3693l-.682.3138c-.456.2197-.814.3766-1.269.408-.195-.0942-.488-.6277-.488-1.067v-.1883c.456-1.1298.911-1.6947 1.269-2.1027l.292-.4079v-.0314c-.065-.5335-.13-.659-.292-.7218-.033 0-.098-.0628-.195-.2197.325-.1255.455-.408.617-.9101l.033-.0627-.065-.0628-.358-.3138c-.26-.2511-.52-.5021-.813-.4394-.155.03-.251.1461-.373.2933l-.017.0205c-.098 0-.748.0628-.748.0628l-.118.0073c-.976.0593-2.033.1236-2.939 1.0283-1.691.6277-4.163 3.4521-4.586 4.7074v.0314l.195.7532.26.251c.326.3139.781.7532 1.236.6904.163 0 .325-.1255.488-.2824.585.1883.976-.0628 1.399-.3452.195-.1255.39-.2511.617-.3452l.066-.0628c.124-.2404.219-.2218.369-.1922l.021.0039c.13.0314.26.0628.39-.0314.13-.0941.195-.251.26-.5335.358.1256.651-.2196.911-.5335.195-.2196.39-.4393.585-.5021.26-.1255.293-.0941.293-.0941.033.0313.033.0627.033.1255 0 .1569-.033.3452-.066.5021-.01.0785-.023.16-.037.2426-.029.1816-.06.3697-.06.542 0 .2197.032.4393.13.5962.39.5022.715.6277 1.171.6591.423.3452 1.073.4393 1.821.251.423-.0941.878-.3452 1.041-.5962.975-.0942 2.569-.8787 3.187-2.0085.715.1569 1.106-.7218 1.431-1.5064.26-.659.553-1.318.943-1.2866h.098l.032-.0942c.13-.3452.228-.408.26-.408.065-.0314.228.0942.326.2197.13.1255.26.2197.422.2511.033 0 .196.1255.196.1255.069.0336.114.0552.149.0875.062.0585.092.1521.176.4146 0 0 .032.0942.065.1569-.911 1.1298-1.204 1.883-1.464 2.95v.0627c0 .2197.163.4708.326.6905.035.0682.074.1323.111.1908.063.1029.116.1885.116.2485v.0628l.033.0314c.52.4707 1.138.6904 1.691.6276.553-.0627 1.041-.3452 1.431-.8787.358.0314.52-.1569.585-.2824.098-.1256.13-.1569.391-.0314l.097.0627.065-.1255c.423-.7532.748-.8473 1.138-.9415.039-.0123.078-.0242.118-.0362.261-.0793.547-.166.858-.4659l.033-.0314v-.0313c.292-.7218.455-.7218.715-.7218.26 0 .553-.0314.976-.5649.162-.2511.325-.2825.52-.3139.39-.0627.683-.2196.748-1.0983.482-.2478.52-.2816.927-.6446l.016-.0145.228-.1883.39-.3766a.9713.9713 0 00.065-.0697c.044-.0488.087-.0976.13-.1186 0 .0115.005.0272.01.0471.01.0345.023.0816.023.1412-.033.0628-.228.5022-.228.5022-.09.2627-.125.281-.365.4086l-.058.0307-.097.0314s.065.1569.097.2197c-.065.0941-1.235 1.726-1.235 1.726-.078.149-.216.3372-.383.5647l-.001.0018-.061.0826c-.025.0339-.05.0686-.076.1041-.049.0668-.099.1348-.15.2039-.525.7092-1.127 1.5234-1.216 2.1812v.0313l.033.0314.162.3766c.098.2825.228.5963.553.5963.085.0273.146.007.224-.0194.012-.0039.024-.0079.037-.012.227-.1569.325-.5963.39-1.0042.387-.2872.801-.8635 1.267-1.5124l.131-.1823c.748-1.0356 1.594-2.1968 2.212-2.1968 0 .0314-.033.0314-.033.0314-.007.0224-.019.0483-.032.0785-.043.0973-.106.2396-.13.455v.0628c.487 2.0398 1.431 3.1696 3.122 3.6717h.065c1.528-.1569 3.187-.5648 4.716-1.1925.26.0314 1.008.0942 1.366.0628.032.0314.032.0314.097.0627 0 .2511.325.6277.423.7218.325.3452.78.6591 1.106.5022h.032v-.0314c.282-.3629.655-.2596 1.089-.1393l.049.0137c.228.0628.488.1256.716.1256h.032l.033-.0314c.618-.5963 1.301-.7846 2.049-.9415.358-.0941.715-.1883 1.106-.3138.455.3766.878.0941 1.268-.1883.293-.2197.553-.408.846-.3452.227.0941.422-.1569.585-.3766.033-.0314.069-.0732.105-.1151.072-.0836.144-.1673.188-.1673 0 0 .065 0 .13.2196l.032.0628h.065c.423.0628.976-.3766 1.269-.6904.13-.0314.325-.0628.52-.0628.077-.0092.15-.0157.22-.0219.169-.0149.316-.0279.431-.0722h.032c.455-.408 1.529-.9415 2.569-1.4436.153-.0764.304-.1509.451-.2237.699-.3457 1.32-.6523 1.696-.9375.163.0942.293.1569.423.1256.009 0 .019-.0029.028-.0076-.343.5193-.657 1.095-.971 1.6708-.06.1044-.119.208-.176.3099-.289.5109-.556.9819-.8 1.322-.215.2847-.385.5908-.548.883l-.001.0018c-.034.0615-.068.1223-.102.1822-.325.5963-.618 1.1298-1.073 1.4122h-.032v.0314c-.098.1255-.13.2825-.13.408 0 .251.13.4707.292.6904.013.0204.026.0413.04.0627.091.1437.196.311.253.5022l.032.1255.131-.0628c.78-.2824 1.463-1.1925 1.853-2.5106.13-.1882.261-.3765.423-.5648.325-.3766.651-.7532.781-1.4436.032-.0314.195-.2825.195-.2825l.036-.0549c.279-.4183.534-.8029.94-1.0435l.032-.0313v-.0314c1.008-1.7574 2.634-3.6404 3.968-3.201h.032c.678 0 .994-.0436 1.231-.0763.048-.0066.092-.0127.135-.0179l.033-.0046.042-.006c.187-.0271.335-.0486.738-.0208.26.0314.488 0 .683-.0627.391-.0942.716-.1569 1.139.2196l.13.0942.065-.1255c.227-.4394.52-.3766.975-.1883.044.0157.086.0323.128.0486.209.0813.398.1553.588.0769.943-.7218 1.203-.7846 2.374-.6277h.033l.032-.0313c.046-.0295.07-.0451.096-.0502.03-.0057.063.0021.132.0188.097.0314.292.0941.618.1255h.065l.032-.0628c.218-.2703.406-.2244.65-.1649l.033.008.028.0067c.255.0621.568.1382.85-.195v.157l1.691-.0628.326.0314c.325.0627.65.1255 1.04-.2511.087.0209.174.014.261.007.043-.0035.086-.007.13-.007l.02-.0025c.25-.0303.442-.0536.695.1908l.098.0942.097-.0942c.228-.2197.391-.1255.651.0314l.026.0153c.157.0916.342.1993.527.1102l.553-.408.52-.3765c.293.2196.195-.1256.097-.408zm-41.271 14.4359h.748l-.032-1.0356h1.203l-.13 2.3223h-.976l-.032-.8159h-.781l-.032.8159h-.976l-.13-2.3223h1.171l-.033 1.0356zm15.936-1.0356h-2.439l.098 2.3223h2.114s.65.0628.618-.5963c0 0 .065-.4079-.326-.4707 0 0 .521-.0941.488-.659 0 .0314.033-.4708-.553-.5963zm-5.301 1.726h1.171v-.91h-1.171v.91zm4.001.2197h.357c.036-.0256.074-.0466.11-.0668.097-.0538.183-.1015.183-.2156-.033-.1883-.228-.1883-.228-.1883h-.422v.4707zm.715-1.0356c0 .1255-.228.1569-.228.1569h-.487v-.5021h.455c.325.0628.26.3452.26.3452zm-10.797.8159h-1.171v-.91h1.171v.91zm4.423.5963l.032-.4393h-1.724v-.408h1.269v-.408h-1.269v-.408h1.789l.033-.6276h-2.96l.098 2.2909h2.732zm-42.605-9.9169c1.041-.659 2.147-1.3494 3.35-1.9457.155-.1873.357-.3858.55-.5754.13-.1281.256-.2522.361-.366-.189-.0909-.377-.0648-.595-.0347l-.023.0033-.488.0627h-.033l-.032-.0313-.001-.0003c-.003-.0027-.005-.0056-.008-.0078a.0379.0379 0 00-.013-.0083c-.021-.0068-.052.0172-.173.1105-.098.1255-.228.2197-.391.1883-.097-.0314-.162-.1255-.227-.2197-1.984 1.2239-3.383 2.4479-4.684 4.0484a.8024.8024 0 00.033.0556.5858.5858 0 01.065.1327c.625-.3378 1.212-.7127 1.789-1.0818l.001-.0006.001-.0005.001-.0006.001-.0005c.172-.1103.344-.2201.516-.3283zm26.343-1.8201c.278-.1945.594-.3137.904-.4305.09-.0339.179-.0677.267-.103.521-.1883 1.041-.3766 1.529-.816.585 0 1.105 0 1.593-.2197-.123.2966-.333.397-.52.4865l-.033.0157c-.195.0941-.39.1882-.552.4393-.052.0167-.113.0245-.179.0329-.057.0073-.118.0152-.179.0299-.26 0-.553.0314-.781.3452-.553-.0628-1.04.0314-1.561.3452-.036-.0174-.112-.0348-.211-.0575a6.6245 6.6245 0 01-.277-.068zm26.311-.9415c-.098.1255-.163.2197-.228.3452.098-.0942.196-.2197.261-.3138l-.033-.0314zm-84.689 1.0042l.033-.0627c.065-1.0043.358-1.224.683-1.4436l.041-.0283c.217-.1484.457-.3118.609-.7249.551-.0591.958-.6183 1.329-1.1287l.07-.0952.423-.5649v-.0314c0-.0628.032-.0941.032-.0941h.065c.065 0 .195 0 .325-.1256l.066-.0627-.131-.2511c.131-.0942.261-.2197.391-.3766.26-.2824.52-.5649.878-.4707l.097.0314.033-.0942c.195-.4394.52-.6904.878-.9101l.003-.0018c.519-.3448 1.135-.7534 1.233-1.9439v-.0628c-.106-.2046-.126-.4092-.147-.6309-.005-.0502-.01-.1014-.016-.1536-.006-.051-.01-.103-.015-.156v-.001c-.023-.2405-.047-.502-.18-.7845l-.032-.0628h-.065c-.618-.1255-.976.4708-1.269 1.0043l-.051.0843c-.211.3513-.426.7096-.697.8258l-.032.0313-.033.0314c-.195.3766-.488.5963-.78.816-.326.251-.651.502-.911.9728-.846.6277-1.626 1.4122-2.342 2.1968-1.008 1.067-2.0486 2.1654-3.3495 2.793-.723.3618-1.424.8086-2.121 1.253-.1496.0953-.2989.1906-.4483.2848-1.2684.8473-2.4717 1.6319-3.7401 2.0085h-.0325l-.0325.0314c-1.1708.9414-1.5936 1.1297-2.8295 1.2239-.1626-.0628-.2927-.3766-.2927-.7532 0-.0628 0-.1569.0326-.2197.1951-.2824.4553-.5335.7154-.7218l.0342-.0282c.213-.176.3952-.3265.5187-.5053.3578-.3138.4553-.5649.4553-.7846 0-.1949-.1024-.3651-.2164-.5545a8.8448 8.8448 0 01-.0437-.0731l-.1301-.1883c.2927-.1255.4228-.408.5854-.8159l.0325-.0942-.0976-.0628-.3252-.1882c-.4228-.2825-.9431-.5963-1.3659-.5022-.1301.0314-.2602.1256-.3253.2511h-.065l-.0825.0113c-1.1077.1522-2.1558.2962-3.2348 1.3068-.75.2714-1.1998.8615-1.6378 1.4363l-.0534.07c-.4228.5649-.8455 1.1298-1.561 1.3181-.5357.1088-1.0469.3591-1.5548.6078-.078.0382-.156.0764-.234.114l-.0213.0109c-.5441.278-1.0261.5242-1.5398.6481h-.0325l-.0325.0314c-.2927.3452-.9757.1569-1.5936-.0314-.2602-.0941-.5204-.1569-.748-.1569.0325-.1569.0976-.5963.0976-.659.35-.3659.6215-.5551.9318-.7714l.1089-.076.3577-.251v-.0314c.0976-.2511.1626-.4707.1626-.6904 0-.3452-.0976-.7218-.2602-1.1612-.0975-.5962-1.0407-1.1611-1.6911-1.318-.0326 0-.3903-.2197-.3903-.2197-.7805-.4708-.7805-.5021-.7805-.5649 0-.0628-.0326-.1569-.1952-.3766l-.065-.0941-.0975.0313c-.6504.2825-.7805.5335-.9431.9101a5.49 5.49 0 00-.0797.1627c-.0767.1612-.1674.3517-.3107.5591l-.8455.8787c-1.7237 1.7888-2.4717 2.542-4.0328 3.4835-.8781.5021-2.1791 1.0356-2.9922-.1255-.13-.3139-.1625-.6277-.1625-.9101 0-.2825.0326-.5649.0651-.8473 0 0 .0649-.6277.0649-.6905.1301-.1255.2277-.4079.3252-.7218a21.804 21.804 0 00.026-.0884c.057-.196.117-.403.2017-.5392v-.0314c.2277-.8787 1.0082-1.6319 1.6587-2.0085.4227-.2196.8131-.3138 1.0733-.2196h.0649c.5204-.0942 1.0734-.1256 1.5612-.1256.9757-.0314 1.8863-.0627 2.862-.5962.0108 0 .1408-.0035.3141-.0082.3469-.0093.8676-.0232.9543-.0232a.3469.3469 0 01.0186.0201c.0283.0324.0646.074.144.074.1301 0 .1951-.0941.2276-.1883 0 0 .0326-.0627.0651-.0941.0163.0157.0244.0314.0325.047a.164.164 0 00.0324.0471l.0326.0628.0976-.0314c1.4475-.285 2.8412-.3888 4.3275-.4996.1501-.0111.3011-.0224.4532-.0339l1.9514-.1569c.2276-.0628.4878-.0314.7155 0 .4228.0941.8781.1569 1.1708-.3452l.0325-.0628-.2927-.4393-.0976.0313c-.2601.0628-.748.157-.9431.0942l-.1626-.0628-.0325.1569c-.0326.157-.0651.157-.2277.157-.065 0-.1626 0-.2277.0627-.0975 0-1.0407-.1255-1.0407-.1255-.5749.0616-1.1185.0325-1.6923.0017l-.0314-.0017c-.5854-.0314-1.2032-.0628-1.9837 0h.065l-.0325.0314c-.2927.2196-.7156.1569-1.1059.0941-.4553-.0627-.9431-.0941-1.3985.1569-.8593-.2764-1.6875-.162-2.576-.0394l-.0583.008c-.6504.0942-1.3333.1883-2.0163.0942l.0244-.0302c.2279-.2827.5621-.6971.5935-.8485v-.0314c0-.2197-.4227-.8473-.6829-1.224-.0651-.0627-.4553-.1568-.6179-.094-.1301.0313-.1953.1255-.2278.251-.1626.5963-.7804 1.1925-1.3008 1.6633l-.4878.4707c-.0326.0314-.0977.0314-.0977.0314l-.119.0385c-.7499.2427-1.5775.5105-2.2877.2126l-.0649-.0314-.0651.0314c-.3577.251-.748.251-1.1708.251-.5529 0-1.1057 0-1.4635.5963l-.0326.0627.065.0628c.683.7218 1.4637.6904 2.1141.659h.3902c-.748.7218-2.4067 2.1654-3.2198 2.5734h-.0324l-.0326.0314c-.2277.408-.4877.5335-.813.6904-.2927.1255-.5855.2824-.8782.6277-.3902.251-.7805.6276-1.1708 1.0042l-.0545.0527c-.8926.8619-1.7914 1.7298-3.0025 1.4223 0-.0471.008-.102.0162-.1569.0081-.055.0162-.1099.0162-.157.0326-.1568.0326-.3137.0326-.4393 0-.1255-.0325-.2511-.0975-.3766.0325-.2511.2927-.8159.3577-.8787l.0326-.0314v-.1569c0-.408.195-.6904.3901-.9729a16.847 16.847 0 01.0536-.0853c.1809-.2866.3693-.5849.3693-1.013v-.157c.0651-.0313.13-.0941.1951-.1883.0325-.0627.0975-.1255.13-.1569l.0652-.0314v-.1569c0-.4097-.3678-.9014-.5493-1.144l-.0362-.0485-.1301-.1569-.2927.1883-.026.0168c-.1754.1137-.2446.1586-.4618-.111l-.065-.0941-3.5125 2.6675s-1.5936 1.2239-1.6912 1.2867c-.1791-.0247-.3179.0671-.4481.1532-.0354.0234-.07.0464-.1047.0665-.0975.0941-.1952.1569-.2928.1569-.065 0-.13-.0942-.195-.1883.2927-.8787 1.3008-2.8872 1.626-3.201l.1301-.1256-.195-.0627c-.1301-.0314-.2278-.2825-.2928-.5022-.0651-.1882-.1625-.3765-.2926-.5648l-.0652-.0628-.0975.0314c-1.8864.7532-4.358 2.4478-5.8215 3.7659-.7206.1803-1.3537.5085-1.9709.8285-.1349.0699-.2692.1396-.4033.2071-.7155.408-1.4961.8159-2.3416 1.0356l-.3252.1256-.0517.0218c-.5053.2139-1.0408.4406-1.6069.1978.2602-.3452.6178-.5335 1.0081-.7218l.0559-.0268c.5743-.2762 1.2543-.6031 1.5378-1.6364v-.1256c0-.1883.0324-.3138.0975-.4079.0731-.0707.2013-.0883.3293-.106a2.2752 2.2752 0 00.126-.0196c.2276 0 .4879 0 .6505-.1883.1301-.1255.1625-.3138.1625-.5962v-.1569c-.1951-1.067-.6504-1.3181-1.0732-1.5378 0 0-.2926-.1883-.3902-.2197.0325-.2196.0651-.2824.0976-.3138.065-.0314.1626 0 .2602.0314a2.676 2.676 0 01.0812.0174c.1355.0305.2711.061.4066-.0174h.0324v-.0314c.2602-.3138.6505-.4393 1.1058-.5649.2277-.0627.4229-.1255.6505-.2197l.065-.0313V8.035c.0325-.2197.1627-.2511.4229-.2824l.031-.0043c.2279-.0306.5602-.0753.6845-.4351v-.0314c0-.3766-.1302-.9415-.3579-1.4122l-.0324-.0628h-.0976c-1.5791.1866-2.839 1.1745-3.8744 1.9863l-.0284.0222c-.8781.2825-1.6261.8474-2.3091 1.3809l-.0975.0627.9107 1.1298h.065c.2195.0235.3841.1.5488.1765.0548.0255.1097.051.1666.0745.1952.0942.3904.1883.6506.2197-.2602.6591-.7806.9729-1.3335 1.2867-.056.0338-.1133.0675-.1713.1016-.2116.1243-.4306.2528-.6093.4005l-.0324.0314v.3766c-.065.0628-.4229.2824-.4229.2824l-.0272.0197c-.3797.2746-.7276.5263-1.0135 1.0473v.0628c0 .1255-.065.2825-.1626.4394-.0976.1883-.1951.4079-.1951.6904 0 .251.0976.5335.3903.8787h.0324c.1301.0941.2602.1883.3903.3138.2602.2511.5854.5649.9432.3138l.0325-.0313v-.0314c.2276-.408.5203-.3766.9757-.3138.1951.0313.4228.0627.6504.0313h.0651l.0326-.0313c.4553-.6591 1.2032-.9101 1.9838-1.1612.4227-.1255.8781-.2824 1.2683-.5021.5204.3452.9107-.0314 1.2034-.3138.2601-.2511.4878-.4708.748-.408.2276.0627.3903-.1883.4878-.408.0325-.0941.1302-.251.1627-.251 0 0 .065 0 .1951.2196l.0326.0628h.0649c.3903 0 .8457 0 1.0409-.4394v-.0627c0-.5021.6179-.6591 1.2033-.7846h.0324c-.0325.2511-.1301.659-.2602 1.0984-.1951.659-.3901 1.3808-.3901 1.9457 0 .1883.0325.3766.0975.5335.4553.5963.9107 1.1925 1.431.9729l.065-.0314v-.0628c.065-.6904.5203-1.0356 1.0082-1.3808.3902-.2824.7805-.5963.9431-1.067.0488-.0157.0977-.0235.1465-.0314.0487-.0078.0975-.0157.1463-.0314.1626 0 .3252-.0314.4553-.1569.0651-.0628.0975-.1883.0975-.3138.2276-.0628.4554-.1883.618-.2825.2602-.1882.4878-.3138.7805-.2196l.13.0314.0326-.1256c.0325-.0941.065-.1255.2276-.1569a.803.803 0 01.0779-.019c.091-.0194.1977-.042.2474-.1379.0325-.0628.0651-.1255.0651-.2197 0-.0314-.0001-.0941-.0326-.1255.1301-.0628.2927-.2197.5204-.4393.2602-.251.7154-.6905.9106-.6591-.0267.1544-.1846.4988-.3662.8947-.0398.0869-.0807.1761-.1217.2665-.5529 1.1297-.9756 2.0712-.9756 2.6361 0 .1255.0325.251.0975.3452.4228.5649 1.6912 1.3808 2.2116 1.3808h.0326l.0324-.0314c.4075-.2722.6639-.2529 1.0605-.223l.0453.0034.748.0627.0326-.0941s.0975-.3138.195-.5649c0 .0157.0082.0314.0163.0471.0081.0157.0164.0313.0164.047.0325.0942.0649.1883.1625.1883.0815.0263.1403-.0352.1954-.0927l.0158-.0163.0086-.0087.0078-.0078v-.0628c.1268-.4586.5623-.7385 1.0357-1.0428l.0377-.0242c.5529-.3452 1.2032-.7531 1.3333-1.5063.9757-.1883 1.6913-.5335 2.3417-1.4122.1626.0627.3251.0941.4552.0627.2602-.0627.4228-.3452.5529-.6276l.0247-.043c.1516-.2646.2829-.4937.5607-.5533-.0976.2825-.4228 1.3808-.4228 1.3808v.6591c0 .6276 0 1.3494.0976 1.8829v.0314c.4228.8473 1.1059 1.475 1.6913 1.6005.5203.4394.8781.2511 1.2033.0628l.0063-.0034c.2896-.1553.5166-.277.8718.0034l.0325.0314.065-.0314c.3902-.0942 1.1709-.5335 1.366-1.0043 1.0082-.0627 2.4392-1.1297 2.862-2.1967.1626.0313.3577.0627.4878 0 .4085-.1819.6347-.7446.8548-1.2918l.0232-.0577c.2277-.5963.4555-1.1925.8457-1.1298l.13.0314.0326-.1255c.0609-.4112.1502-.4925.188-.527l.0071-.0065c.0262-.0253.095.0107.1547.042l.0241.0126.0163.0082c.0976.0627.1952.0941.3253.1255.0326.0314.4553.2511.4553.2511l.0375.018c.3102.1491.5904.2838.8406.7665-.0326.4394-.3253.6904-.683.9729l-.0352.0291c-.4466.3687-.9421.778-1.0054 1.6341v.157c0 .1255-.0326.2824-.0976.4079-.0095.0366-.0218.0759-.0344.1162-.0306.0982-.0633.2029-.0633.2918v.1255l.0325.0314c.8131.659 2.114 1.2867 3.0572 1.1298.3577-.0628.6504-.2197.8455-.5021.2602.0313.4879-.0942.6505-.2511.1951-.1569.2927-.2197.4228-.1255h.065c.683.1255 1.0733-.1883 1.431-.5021.1626-.1256.3252-.2511.4879-.3453.13.6277.6179 1.7575 1.1382 1.883.0976.0314.2602 0 .4228-.1569.5529.1255.8131-.0628 1.0733-.2825.1626-.1255.3252-.251.5529-.3452l.0325-.0313.0325-.0314c.113-.1909.2752-.2396.4437-.2903a3.356 3.356 0 00.0767-.0236l.0197-.0042c.2889-.0616.6344-.1353.7933-.7489.3253.0627.5204-.1883.683-.4394.0144-.0208.0287-.042.0432-.0633.1164-.1716.2385-.3516.4121-.4074.2602-.1256.3252-.0942.3252-.0942.0651.0314.0326.2825 0 .4708-.0325.3452-.065.7845.1301 1.1297 0 .0314.1626.1569.1626.1569.0387.0407.0769.0817.115.1226.3145.3374.6172.662 1.0233.662h.0326l.0325-.0314c.9106-.7218 2.5693-1.5063 3.4474-1.726.3902-.1569.748-.408 1.0732-.659.5529-.408 1.0732-.7846 1.7887-.7846h.1301v-.1255c0-.2197.0976-.2511.2927-.2511l.2277-.0628c.0976-.0627.3252-.2196.5854-.4079l.6504-.4708c.4555-.4395.9608-.7347 1.3632-.9699a25.417 25.417 0 00.1654-.0971c.0186-.0179.0266-.0256.036-.0289.0072-.0025.0151-.0025.029-.0025-.4641.6719-1.3164 1.5434-1.8413 2.0802a51.893 51.893 0 00-.175.1794l-.0976.0941c-.1951.1883-.5204.6904-.8456 1.1926l-.5204.7531c-.0806.1038-.2278.2075-.35.2935-.0256.0181-.0502.0354-.0728.0517-.1951.1256-.3902.2511-.4227.4394v.0314c0 .0628.0325.1255.065.1883.1626.1883.1951.3766.2277.5962.0325.2197.065.408.2601.5336.1301.0941.3578.1255.6505.0627h.0325l.2927-.2197.0761-.0573c.3008-.2271.7689-.5806 1.1272-.6958l.0976-.0314v-.2511c0-.3138.1951-.3766.4878-.4393l.0361-.0099c.2214-.0601.486-.132.5168-.4295v-.0314l-.0325-.0314c-.0325-.0627-.065-.1255-.065-.1883 0-.3426.4165-.7779.8043-1.1833l.0087-.0092c.4553-.4707.9107-.9415.9107-1.4122v-.0628c.0312-.3913.3316-.5516.6139-.7025l.037-.0193c.39.1256.585.0314.682-.1569zm-15.8212 2.4649l.0016-.0012c.1024-.0788.2046-.1574.3069-.2355l.2723-.2091c.8532-.6556 1.7141-1.3172 2.6547-1.7994.1301-.1255.2846-.2668.4391-.408.1545-.1412.3089-.2824.439-.4079-.1952-.0314-.3903 0-.5854.0313l-.4553.0628h-.0326l-.0325-.0314c-.0325-.0314-.065-.0314-.1951.0942-.0976.0941-.2277.1883-.3903.1569-.0976-.0314-.1626-.0942-.2276-.1883-2.0815 1.2553-3.5775 2.4792-4.7158 3.86.0731.0706.2193.2645.329.4101.0366.0485.0694.0921.0938.1234.7342-.4087 1.4194-.9358 2.0982-1.4579zm43.5612 3.5257l.1-.0279c.488-.1569.585-.1883.65.0314.033.0314.033.0941-.065.1883-1.301.7218-2.407 1.3808-2.537 1.475-.715.3138-1.853.4707-2.211.2824h.032l-.065-.0314h.033c-.488-.0628-1.529-.5963-1.529-1.4122v-.0314s.098-1.2553.098-1.2867c-.033-.0941-.033-.2196-.033-.4079 0-.5022.065-1.1926.261-1.3809.065-.0627.13-.0627.162-.0627.033 0 .033-.0314.033-.0628 0-.1255-.033-.2824-.065-.3138-.065-.0628-.098-.1256-.098-.1883 0-.1883.163-.4394.325-.6904 0 0 .163-.2197.163-.2511 0-.0314.032-.2197.032-.2197.033-.251.065-.4707.196-.5649.009 0 .024-.0054.044-.0123.046-.0165.114-.0412.183-.019.065.0313.065 0 .065 0 .033-.0314.033-.0942.033-.1256 0-.0367-.011-.0734-.021-.1039-.006-.0215-.012-.04-.012-.053l-.097-.1255v-.0628c0-.0941.097-.2824.227-.5021l.075-.1412.001-.0002c.083-.1545.175-.327.25-.5176.422-.7532.91-1.5064 1.398-2.2596.553-.8473 1.073-1.6632 1.496-2.4792-.163.0942-.358.1883-.358.1883-1.138.5649-2.309 1.1925-3.284 2.4165l-.033.0627h-.065c-.455-.0627-.683.2511-1.008.7532l-.39.5649c-.196.2511-.423.3138-.651.3452-.228.0314-.455.0628-.618.4394v.0313l-.032.0314c-.228.1569-.521.1883-.748.1883-.358 0-.618.0314-.846.4394l-.065.0941s-.26-.1255-.358-.1883c-.292.7532-1.561.9415-2.016.9415h-.065l-.033-.0314c-.618-.6904-1.008-1.6319-1.268-3.0127-.007-.0195-.014-.0376-.02-.0549-.025-.0663-.045-.1217-.045-.1962 0-.1694.058-.3201.114-.4666.017-.0435.034-.0866.048-.1296.065-.1569.131-.3139.131-.4394 0-.0628-.033-.1255-.066-.1883l-.032-.0314v-.0313c-.033-.2511-.033-.6905-.033-1.1298 0-.6277.033-1.2867.098-1.6319-.154.0989-.449.6065-.678 1.0016l-.001.0012c-.062.1059-.119.2044-.167.2839l-.292.5335h-.065c-.448 0-.613.2727-.834.6395l-.012.0195c-.195.3452-.455.7532-.943 1.067l-.033.0314h-.065c-.162-.0628-.227 0-.39.3138-.13.2511-.293.5649-.65.6591-.195.251-.228.2824-.293.3452l-.293.3452h-.032c-.15.0578-.245.1957-.361.3644l-.03.0435c-.13.2197-.292.4394-.585.5335-.39.0942-.423.2825-.455.5022l-.001.0081c-.033.2177-.069.4645-.455.6195-.094.0228-.171.1284-.257.2447-.032.0437-.065.089-.1.1319-.195.2511-.391.5021-.748.5963-.163.5021-.423.6904-.651.8159-.195.0942-.325.1883-.39.4394v.0627l-.065.0314c-.004.0042-.018.0116-.038.023-.135.075-.582.3232-.808.9499v.0627c-.131.1521-.262.2427-.376.3216a2.7091 2.7091 0 00-.079.055c-.195.0942-.358.1883-.488.5963l-.032.0628-.065.0313c-.163.0628-.553.4394-1.106 1.1926-.423.3452-.488.5021-.553.7218l-.011.0259-.018.0417c-.087.2046-.189.4474-.687.8425l-.162.1255-.007.0056c-.421.3754-.907.8085-1.554.4338-.391-.2197-.683-.9101-.683-.9415l-.033-.0942.098-.0627c.269-.1558.449-.3974.613-.6183.035-.0462.069-.0915.102-.1349.228-.3138.456-.6277.781-.5649.097-.0941.13-.1569.13-.2197 0-.0157-.008-.0392-.016-.0627-.008-.0236-.017-.0471-.017-.0628-.032-.0628-.032-.0942-.032-.1569 0-.0314 0-.0942.032-.1255.065-.0942.196-.157.456-.2197.381-.4464.625-.8048.847-1.1306l.001-.0012c.043-.0632.085-.1251.127-.1863.261-.408.521-.8159 1.009-1.3181l.032-.0627h.065c.377.0908.511-.169.725-.5822l.023-.0455c.163-.3766.358-.7531.781-.9101.748-.251 1.106-.9414 1.431-1.5691l.054-.0951c.341-.6009.7-1.2356 1.442-1.474.813-.5963 1.431-1.4436 2.016-2.2595.618-.8788 1.269-1.7889 2.212-2.3851.26-.3766.618-.659.975-.9101l.092-.0734c.363-.2901.737-.5885.917-.9936.065-.7532.845-1.9771 1.593-2.134.228-.0628.586 0 .878.502l.033.0629-.033.0627c-.032.0314-.032.157-.032.3138 0 .6905.227 2.1654.325 2.3537l.032.0628s-.195.5963-.227.659c.065.1569.097.3452.097.5649 0 .4708-.097.9729-.195 1.3181l-.032.1569h-.065c-.098.0314-.13.2824-.13.5021 0 .2511-.033.5335-.228.659.032.1256.032.2511.032.3766v.6591c0 .4393.066.8159.456 1.067.65.3766 1.041 0 1.496-.4394.325-.3138.65-.5962 1.073-.6276.033-.0314.618-.5335.618-.5335l.013-.0112c.419-.3735.871-.7762 1.451-1.0558.52-.6277 1.138-1.0043 1.756-1.3495.423-.2511.845-.5021 1.268-.8473l.065-.0628.065.0314c.163.0942.358-.0941.586-.3452.162-.157.292-.2824.422-.3452.173-.0953.309-.2087.449-.3264.045-.0374.09-.0752.137-.113.325-.3138.65-.5648 1.138-.5962 0-.0942.033-.157.098-.2197.13-.1255.292-.0628.455 0 .024.0078.051.0176.077.0274.079.0295.159.0589.183.0354.033 0 .033-.0314.033-.0628l-.033-.0314.26-.0941c.195 0 .391.2196.553.4393.065.0942.195.251.228.251h-.033l.098.2197c-.13.0314-.195.408-.228.7218-.032.3453-.065.6591-.26.7846-.032.0314-.098.0314-.13.0314-.033.3138-.163.4707-.293.5963-.13.0941-.227.2196-.227.5021v.2197c-.196.5962-.553 1.1297-.878 1.5691 0 0-.261.3766-.293.408 0 .4393-.195.6276-.39.8159l-.261.2824-.065.0942-.097-.0628c0-.0314-.033-.0314-.033-.0314-.065.0314-.13.2824-.162.408 0 0-.098.3138-.13.3766-.066.6277-.651 1.4436-.879 1.7574 0 0-.032.0628-.065.0942 0 .0314-.032.1255-.097.251l-.195.408-.098.4394c-.097.5335-.195.9414-.455.9414-.02 0-.04.012-.068.0286-.017.0102-.037.0222-.062.0342.016.0157.032.0235.048.0314a.158.158 0 01.049.0314c.033.0627.033.1255.033.1883 0 .1883-.065.4079-.163.7218-.021.0802-.045.1604-.068.2375-.049.1643-.094.3147-.094.4215v.0314l-.033.0314c-.032.0627-.065.1569-.065.2824 0 .1569.033.3452.065.5335.033.1883.065.408.065.5649v.0314c.208.1147.959-.0326 1.459-.1307l.297-.0576c.521-.0942.716-.1256.813-.0628l.033-.0314c.097-.0627.26-.1255.358-.0627.032.0313.065.0627.065.1255.141 0 .477-.0944.713-.1604zm58.315-2.1305c-.65 0-1.171.4707-1.171 1.1297 0 .6591.553 1.1298 1.171 1.1298.65 0 1.171-.4707 1.171-1.1298 0-.659-.553-1.1297-1.171-1.1297zm-.943 1.1297c0 .5335.423.9415.943.9415s.911-.408.943-.9415c0-.5335-.423-.9414-.943-.9414s-.943.4079-.943.9414zm1.463-.2824c0-.2511-.162-.3766-.487-.3766h-.521v1.2867h.195v-.5335h.228l.358.5649h.227l-.39-.5649c.228-.0314.39-.1569.39-.3766zm-.78-.2197v.408h.227c.163 0 .326-.0314.326-.2197 0-.1569-.163-.1883-.293-.1883h-.26z" clip-rule="evenodd"/>
    <path d="M35 29H1v2h34v-2zM195 29h-34v2h34v-2z"/>
  </g>
  <defs>
    <clipPath id="clip0">
      <path fill="#fff" d="M0 0h196v34H0z"/>
    </clipPath>
  </defs>
</svg>
