<svg width="24" height="24" viewBox="0 0 24 24" fill="none" xmlns="http://www.w3.org/2000/svg">
<path d="M7.31288 19.4793H6.0416V17.9585H4.5208V16.6872L5.60199 15.606L8.39408 18.3981L7.31288 19.4793ZM13.5268 8.45348C13.5268 8.52477 13.503 8.59606 13.4436 8.65546L7.00398 15.0951C6.94456 15.1545 6.87329 15.1783 6.802 15.1783C6.64753 15.1783 6.54062 15.0713 6.54062 14.9169C6.54062 14.8456 6.56437 14.7743 6.62378 14.7149L13.0634 8.27527C13.1228 8.21587 13.1941 8.1921 13.2654 8.1921C13.4198 8.1921 13.5268 8.29903 13.5268 8.45348ZM12.8852 6.17229L3 16.0575V21H7.94259L17.8278 11.1149L12.8852 6.17229ZM21.0001 7.3129C21.0001 6.90893 20.8337 6.51685 20.5605 6.23169L17.7684 3.45149C17.4832 3.16634 17.0911 3 16.6872 3C16.2832 3 15.8911 3.16634 15.6179 3.45149L13.6456 5.41189L18.5882 10.3545L20.5605 8.38221C20.8337 8.10894 21.0001 7.71686 21.0001 7.3129Z" fill="#01683A"/>
</svg>
