<svg width="50" height="51" viewBox="0 0 50 51" fill="none" xmlns="http://www.w3.org/2000/svg">
<g filter="url(#filter0_dd)">
<circle cx="25" cy="23" r="16" fill="#01683A"/>
</g>
<path fill-rule="evenodd" clip-rule="evenodd" d="M26.2 16C26.2 15.4477 25.7523 15 25.2 15C24.6477 15 24.2 15.4477 24.2 16V21.8H18C17.4477 21.8 17 22.2477 17 22.8C17 23.3523 17.4477 23.8 18 23.8H24.2V30C24.2 30.5523 24.6477 31 25.2 31C25.7523 31 26.2 30.5523 26.2 30V23.8H32C32.5523 23.8 33 23.3523 33 22.8C33 22.2477 32.5523 21.8 32 21.8H26.2V16Z" fill="white"/>
<defs>
<filter id="filter0_dd" x="0" y="0.75" width="50" height="50" filterUnits="userSpaceOnUse" color-interpolation-filters="sRGB">
<feFlood flood-opacity="0" result="BackgroundImageFix"/>
<feColorMatrix in="SourceAlpha" type="matrix" values="0 0 0 0 0 0 0 0 0 0 0 0 0 0 0 0 0 0 127 0"/>
<feOffset dy="2.75"/>
<feGaussianBlur stdDeviation="4.5"/>
<feColorMatrix type="matrix" values="0 0 0 0 0 0 0 0 0 0 0 0 0 0 0 0 0 0 0.19 0"/>
<feBlend mode="normal" in2="BackgroundImageFix" result="effect1_dropShadow"/>
<feColorMatrix in="SourceAlpha" type="matrix" values="0 0 0 0 0 0 0 0 0 0 0 0 0 0 0 0 0 0 127 0"/>
<feOffset dy="0.25"/>
<feGaussianBlur stdDeviation="1.5"/>
<feColorMatrix type="matrix" values="0 0 0 0 0 0 0 0 0 0 0 0 0 0 0 0 0 0 0.039 0"/>
<feBlend mode="normal" in2="effect1_dropShadow" result="effect2_dropShadow"/>
<feBlend mode="normal" in="SourceGraphic" in2="effect2_dropShadow" result="shape"/>
</filter>
</defs>
</svg>
