<svg width="24" height="24" viewBox="0 0 24 24" fill="none" xmlns="http://www.w3.org/2000/svg">
<path fill-rule="evenodd" clip-rule="evenodd" d="M15.8929 14.6086L20.7348 19.4505C20.905 19.6208 21.0005 19.8518 21.0004 20.0925C21.0004 20.3333 20.9046 20.5641 20.7343 20.7343C20.564 20.9045 20.3331 21.0001 20.0923 21C19.8516 20.9999 19.6207 20.9042 19.4505 20.7339L14.6086 15.892C13.1612 17.0131 11.341 17.5406 9.51844 17.3674C7.69585 17.1941 6.00771 16.333 4.79746 14.9593C3.58722 13.5855 2.94576 11.8023 3.0036 9.97241C3.06143 8.14251 3.81421 6.40337 5.10879 5.10879C6.40337 3.81421 8.14251 3.06143 9.97241 3.0036C11.8023 2.94576 13.5855 3.58722 14.9593 4.79746C16.333 6.00771 17.1941 7.69585 17.3674 9.51844C17.5406 11.341 17.0131 13.1612 15.892 14.6086H15.8929ZM10.2005 15.5995C11.6327 15.5995 13.0061 15.0306 14.0188 14.0179C15.0315 13.0052 15.6004 11.6318 15.6004 10.1996C15.6004 8.76748 15.0315 7.39399 14.0188 6.38132C13.0061 5.36865 11.6327 4.79973 10.2005 4.79973C8.76838 4.79973 7.3949 5.36865 6.38222 6.38132C5.36955 7.39399 4.80063 8.76748 4.80063 10.1996C4.80063 11.6318 5.36955 13.0052 6.38222 14.0179C7.3949 15.0306 8.76838 15.5995 10.2005 15.5995Z" fill="#6C757D"/>
</svg>
