<svg width="24" height="24" viewBox="0 0 24 24" fill="none" xmlns="http://www.w3.org/2000/svg">
<path d="M10 17.6251C10 17.836 9.83594 18 9.62501 18H8.875C8.66407 18 8.5 17.836 8.5 17.6251V9.37501C8.5 9.16406 8.66407 9.00001 8.875 9.00001H9.62501C9.83594 9.00001 10 9.16406 10 9.37501V17.6251ZM13 17.6251C13 17.836 12.8359 18 12.625 18H11.875C11.6641 18 11.5 17.836 11.5 17.6251V9.37501C11.5 9.16406 11.6641 9.00001 11.875 9.00001H12.625C12.8359 9.00001 13 9.16406 13 9.37501V17.6251ZM16 17.6251C16 17.836 15.8359 18 15.625 18H14.875C14.6641 18 14.5 17.836 14.5 17.6251V9.37501C14.5 9.16406 14.6641 9.00001 14.875 9.00001H15.625C15.8359 9.00001 16 9.16406 16 9.37501V17.6251ZM9.62501 6L10.1992 4.62891C10.2344 4.58204 10.3281 4.51172 10.3984 4.50001H14.1133C14.1719 4.51172 14.2773 4.58204 14.3125 4.62891L14.875 6H9.62501ZM20.5001 6.37501C20.5001 6.16407 20.3359 6 20.125 6H16.5039L15.6836 4.04298C15.4492 3.46876 14.746 3 14.125 3H10.375C9.75391 3 9.05079 3.46876 8.81641 4.04298L7.99609 6H4.375C4.16406 6 4 6.16407 4 6.37501V7.12501C4 7.33594 4.16406 7.50001 4.375 7.50001H5.5V18.6563C5.5 19.9453 6.34375 21 7.37501 21H17.125C18.1562 21 19.0001 19.8984 19.0001 18.6094V7.50001H20.125C20.3359 7.50001 20.5001 7.33594 20.5001 7.12501V6.37501Z" fill="#6C757D"/>
</svg>
