<svg width="24" height="24" viewBox="0 0 24 24" fill="none" xmlns="http://www.w3.org/2000/svg">
<path fill-rule="evenodd" clip-rule="evenodd" d="M12 4C11.8316 4 11.6872 4.06262 11.5669 4.18787L8.75187 7.11858C8.63157 7.24383 8.57143 7.40038 8.57143 7.58824C8.57143 7.76359 8.63157 7.91388 8.75187 8.03912C8.87218 8.16437 9.01653 8.22699 9.18495 8.22699C9.35338 8.22699 9.49774 8.16437 9.61805 8.03912L11.3684 6.21683V17.0755C11.3684 17.2508 11.4286 17.4011 11.5489 17.5264C11.6812 17.6516 11.8316 17.7143 12 17.7143C12.1684 17.7143 12.3128 17.6516 12.4331 17.5264C12.5654 17.4011 12.6316 17.2508 12.6316 17.0755V6.21683L14.3639 8.03912C14.4962 8.16437 14.6466 8.22699 14.815 8.22699C14.9835 8.22699 15.1279 8.16437 15.2481 8.03912C15.3685 7.91388 15.4286 7.76359 15.4286 7.58824C15.4286 7.40038 15.3685 7.24383 15.2481 7.11858L12.4331 4.18787C12.3128 4.06262 12.1684 4 12 4ZM19.375 14.2857C19.5535 14.2857 19.7023 14.3512 19.8214 14.4821C19.9404 14.6012 20 14.7441 20 14.9107V18.8929C20 19.1904 19.8928 19.4464 19.6785 19.6607C19.4642 19.8869 19.2024 20 18.8927 20H5.10713C4.79762 20 4.53571 19.8928 4.32142 19.6785C4.10714 19.4642 4 19.2024 4 18.8929V14.9107C4 14.7441 4.05952 14.6012 4.17858 14.4821C4.29761 14.3512 4.44047 14.2857 4.60714 14.2857C4.78571 14.2857 4.93452 14.3512 5.05357 14.4821C5.17262 14.6012 5.23213 14.7441 5.23213 14.9107V18.3928C5.23213 18.5 5.26785 18.5893 5.33927 18.6608C5.41071 18.7322 5.49999 18.7679 5.60713 18.7679H18.3928C18.5 18.7679 18.5892 18.7322 18.6606 18.6608C18.7321 18.5893 18.7678 18.5 18.7678 18.3928V14.9107C18.7678 14.7441 18.8273 14.6012 18.9464 14.4821C19.0654 14.3512 19.2082 14.2857 19.375 14.2857Z" fill="#01683A"/>
</svg>
