<svg xmlns="http://www.w3.org/2000/svg" fill="none" width="375" height="375" viewBox="0 0 375 375">
  <path fill="#3ECF8E" d="M218.909 28.4831c0-6.8942-5.587-12.4831-12.478-12.4831-3.427 0-6.531 1.382-8.786 3.6192l-1.733 1.9288-96.237 130.11h95.505l23.249-119.6525.424-2.3373c.037-.3901.056-.7854.056-1.1851zM65 205.336c0 11.03 8.9385 19.972 19.9647 19.972H180.87l14.31-73.65H99.675l-28.939 39.125-1.8635 2.729C66.4382 196.822 65 200.911 65 205.336z"/>
  <path fill="#3ECF8E" d="M310 171.631c0-11.031-8.939-19.973-19.965-19.973H195.18l-14.31 73.65h94.332l30.402-41.103 1.213-1.75c2.014-3.118 3.183-6.835 3.183-10.824zM157.533 346.517c0 6.894 5.586 12.483 12.478 12.483 3.695 0 7.016-1.607 9.3-4.161l.492-.554 95.399-128.977H180.87l-22.885 117.781-.061.316c-.256.995-.391 2.038-.391 3.112z"/>
  <path fill="url(#paint0_linear)" d="M157.533 346.517c0 6.894 5.586 12.483 12.478 12.483 3.695 0 7.016-1.607 9.3-4.161l.492-.554 95.399-128.977H180.87l-22.885 117.781-.061.316c-.256.995-.391 2.038-.391 3.112z"/>
  <defs>
    <linearGradient id="paint0_linear" x1="236" x2="167" y1="237" y2="359" gradientUnits="userSpaceOnUse">
      <stop stop-color="#23915F"/>
      <stop offset="1" stop-color="#3ECF8E" stop-opacity="0"/>
    </linearGradient>
  </defs>
</svg>
