<svg width="24" height="24" viewBox="0 0 24 24" fill="none" xmlns="http://www.w3.org/2000/svg">
<path fill-rule="evenodd" clip-rule="evenodd" d="M21.948 6.20875C22.2049 6.46016 22.3333 6.76543 22.3333 7.12458C22.3333 7.48373 22.2049 7.789 21.948 8.0404L10.1114 19.6229C9.85448 19.8743 9.54251 20 9.17548 20C8.80846 20 8.49649 19.8743 8.23957 19.6229L1.38538 12.9158C1.12846 12.6644 1 12.3591 1 12C1 11.6409 1.12846 11.3356 1.38538 11.0842L3.2572 9.25252C3.51412 9.00112 3.82609 8.87542 4.19312 8.87542C4.56015 8.87542 4.87211 9.00112 5.12903 9.25252L9.17548 13.2256L18.2043 4.3771C18.4612 4.1257 18.7732 4 19.1402 4C19.5072 4 19.8192 4.1257 20.0761 4.3771L21.948 6.20875Z" fill="#80BB00"/>
</svg>
