<svg xmlns="http://www.w3.org/2000/svg" width="18" height="18" viewBox="0 0 18 18" fill="none">
  <path d="M4.31288 16.4793H3.0416V14.9585H1.5208V13.6872L2.60199 12.606L5.39408 15.3981L4.31288 16.4793ZM10.5268 5.45348C10.5268 5.52477 10.503 5.59606 10.4436 5.65546L4.00398 12.0951C3.94456 12.1545 3.87329 12.1783 3.802 12.1783C3.64753 12.1783 3.54062 12.0713 3.54062 11.9169C3.54062 11.8456 3.56437 11.7743 3.62378 11.7149L10.0634 5.27527C10.1228 5.21587 10.1941 5.1921 10.2654 5.1921C10.4198 5.1921 10.5268 5.29903 10.5268 5.45348ZM9.88519 3.17229L0 13.0575V18H4.94259L14.8278 8.11488L9.88519 3.17229ZM18.0001 4.3129C18.0001 3.90893 17.8337 3.51685 17.5605 3.23169L14.7684 0.451486C14.4832 0.166337 14.0911 0 13.6872 0C13.2832 0 12.8911 0.166337 12.6179 0.451486L10.6456 2.41189L15.5882 7.35448L17.5605 5.38221C17.8337 5.10894 18.0001 4.71686 18.0001 4.3129Z"
  fill="#01683A"/>
</svg>
