<svg width="24" height="24" viewBox="0 0 24 24" fill="none" xmlns="http://www.w3.org/2000/svg">
  <path fill-rule="evenodd" clip-rule="evenodd" d="M18.003 7.5518C19.5961 8.61747 20.8213 10.0974 21.527 11.8088C21.5747 11.9323 21.5747 12.0677 21.527 12.1912C20.8213 13.9026 19.5961 15.3825 18.003 16.4482C16.4098 17.5139 14.5185 18.1186 12.5627 18.1875C10.607 18.1186 8.71567 17.5139 7.12251 16.4482C5.52935 15.3825 4.30421 13.9026 3.59849 12.1912C3.55083 12.0677 3.55083 11.9323 3.59849 11.8088C4.30421 10.0974 5.52935 8.61747 7.12251 7.5518C8.71567 6.48612 10.607 5.88145 12.5627 5.8125C14.5185 5.88145 16.4098 6.48612 18.003 7.5518ZM10.396 15.0401C11.0373 15.4418 11.7914 15.6562 12.5627 15.6562C13.5966 15.6548 14.5877 15.2691 15.3188 14.5837C16.0499 13.8984 16.4613 12.9692 16.4629 12C16.4629 11.2769 16.2341 10.57 15.8056 9.9687C15.377 9.36743 14.7679 8.8988 14.0553 8.62207C13.3426 8.34533 12.5584 8.27293 11.8019 8.414C11.0453 8.55508 10.3504 8.90331 9.80495 9.41464C9.25951 9.92598 8.88806 10.5775 8.73757 11.2867C8.58709 11.9959 8.66432 12.7311 8.95951 13.3992C9.2547 14.0673 9.75459 14.6383 10.396 15.0401ZM14.9628 12C14.9628 13.2426 13.8883 14.25 12.5627 14.25C11.2372 14.25 10.1627 13.2426 10.1627 12C10.1627 10.7574 11.2372 9.75 12.5627 9.75C13.8883 9.75 14.9628 10.7574 14.9628 12Z" fill="#01683A"/>
</svg>
