<svg xmlns="http://www.w3.org/2000/svg" fill="none" width="14" height="15" viewBox="0 0 14 15">
  <path fill="#6C757D" d="M9.7122 6.1071c0 2.0676-1.6825 3.75-3.75 3.75s-3.75-1.6824-3.75-3.75c0-2.0675 1.6825-3.75 3.75-3.75s3.75 1.6825 3.75 3.75zm4.2857 6.9643c0-.2846-.1172-.5608-.3097-.7533L10.8171 9.447c.678-.9794 1.038-2.1512 1.038-3.3399 0-3.2561-2.6368-5.8928-5.893-5.8928C2.7062.2143.0694 2.851.0694 6.107.0693 9.3633 2.706 12 5.9622 12c1.1886 0 2.3605-.3599 3.3398-1.0379l2.8711 2.8627c.1926.2009.4688.3181.7534.3181.5859 0 1.0714-.4855 1.0714-1.0715z"/>
</svg>
