<svg width="14" height="14" viewBox="0 0 14 14" fill="none" xmlns="http://www.w3.org/2000/svg">
<path fill-rule="evenodd" clip-rule="evenodd" d="M3.3284 1.14645L0.146416 4.32843C-0.0488461 4.52369 -0.0488461 4.84027 0.146416 5.03553C0.341678 5.2308 0.658261 5.2308 0.853523 5.03553L3.18195 2.70711V12.4104H4.18195V2.70711L6.51038 5.03553C6.70564 5.2308 7.02222 5.2308 7.21748 5.03553C7.41275 4.84027 7.41275 4.52369 7.21748 4.32843L4.0355 1.14645C3.84024 0.951185 3.52366 0.951185 3.3284 1.14645ZM10.6679 12.8546L13.8498 9.67264C14.0451 9.47738 14.0451 9.16079 13.8498 8.96553C13.6546 8.77027 13.338 8.77027 13.1427 8.96553L10.8143 11.294V1.59062H9.81432V11.294L7.48589 8.96553C7.29063 8.77027 6.97404 8.77027 6.77878 8.96553C6.58352 9.16079 6.58352 9.47738 6.77878 9.67264L9.96076 12.8546C10.156 13.0499 10.4726 13.0499 10.6679 12.8546Z" fill="#818B95"/>
</svg>
