<svg xmlns="http://www.w3.org/2000/svg" width="17" height="18" viewBox="0 0 17 18" fill="none">
  <path d="M6.00001 14.6251C6.00001 14.836 5.83594 15 5.62501 15H4.875C4.66407 15 4.5 14.836 4.5 14.6251V6.37501C4.5 6.16406 4.66407 6.00001 4.875 6.00001H5.62501C5.83594 6.00001 6.00001 6.16406 6.00001 6.37501V14.6251ZM9.00001 14.6251C9.00001 14.836 8.83594 15 8.62501 15H7.87501C7.66407 15 7.5 14.836 7.5 14.6251V6.37501C7.5 6.16406 7.66407 6.00001 7.87501 6.00001H8.62501C8.83594 6.00001 9.00001 6.16406 9.00001 6.37501V14.6251ZM12 14.6251C12 14.836 11.8359 15 11.625 15H10.875C10.6641 15 10.5 14.836 10.5 14.6251V6.37501C10.5 6.16406 10.6641 6.00001 10.875 6.00001H11.625C11.8359 6.00001 12 6.16406 12 6.37501V14.6251ZM5.62501 3L6.19923 1.62891C6.23438 1.58204 6.32813 1.51172 6.39844 1.50001H10.1133C10.1719 1.51172 10.2773 1.58204 10.3125 1.62891L10.875 3H5.62501ZM16.5001 3.37501C16.5001 3.16407 16.3359 3 16.125 3H12.5039L11.6836 1.04298C11.4492 0.468755 10.746 0 10.125 0H6.37501C5.75391 0 5.05079 0.468755 4.81641 1.04298L3.99609 3H0.375003C0.164063 3 0 3.16407 0 3.37501V4.12501C0 4.33594 0.164063 4.50001 0.375003 4.50001H1.5V15.6563C1.5 16.9453 2.34375 18 3.37501 18H13.125C14.1562 18 15.0001 16.8984 15.0001 15.6094V4.50001H16.125C16.3359 4.50001 16.5001 4.33594 16.5001 4.12501V3.37501Z"
  fill="#6C757D"/>
</svg>
